Helius-Bold.ufo
<glyph name="exclam" format="2">
  <advance width="215"/>
  <unicode hex="0021"/>
  <outline>
    <contour>
      <point x="163" y="0" type="line"/>
      <point x="53" y="0" type="line"/>
      <point x="53" y="129" type="line"/>
      <point x="163" y="129" type="line"/>
    </contour>
    <contour>
      <point x="163" y="427" type="line"/>
      <point x="147" y="208" type="line"/>
      <point x="69" y="208" type="line"/>
      <point x="53" y="427" type="line"/>
      <point x="53" y="633" type="line"/>
      <point x="163" y="633" type="line"/>
    </contour>
  </outline>
</glyph>
<glyph name="quotedbl" format="2">
  <advance width="364"/>
  <unicode hex="0022"/>
  <outline>
    <contour>
      <point x="237" y="583" type="line"/>
      <point x="237" y="549"/>
      <point x="208" y="422"/>
      <point x="176" y="390" type="curve"/>
      <point x="302" y="390" type="line"/>
      <point x="328" y="448"/>
      <point x="347" y="520"/>
      <point x="347" y="583" type="curve"/>
    </contour>
    <contour>
      <point x="78" y="583" type="line"/>
      <point x="78" y="549"/>
      <point x="50" y="422"/>
      <point x="18" y="390" type="curve"/>
      <point x="143" y="390" type="line"/>
      <point x="169" y="448"/>
      <point x="188" y="520"/>
      <point x="188" y="583" type="curve"/>
    </contour>
  </outline>
</glyph>
<glyph name="numbersign" format="2">
  <advance width="598"/>
  <unicode hex="0023"/>
  <outline>
    <contour>
      <point x="560" y="337" type="line"/>
      <point x="560" y="447" type="line"/>
      <point x="472" y="447" type="line"/>
      <point x="494" y="603" type="line"/>
      <point x="383" y="603" type="line"/>
      <point x="361" y="447" type="line"/>
      <point x="280" y="447" type="line"/>
      <point x="302" y="603" type="line"/>
      <point x="191" y="603" type="line"/>
      <point x="169" y="447" type="line"/>
      <point x="70" y="447" type="line"/>
      <point x="70" y="337" type="line"/>
      <point x="154" y="337" type="line"/>
      <point x="143" y="261" type="line"/>
      <point x="39" y="261" type="line"/>
      <point x="39" y="151" type="line"/>
      <point x="128" y="151" type="line"/>
      <point x="107" y="0" type="line"/>
      <point x="218" y="0" type="line"/>
      <point x="239" y="151" type="line"/>
      <point x="320" y="151" type="line"/>
      <point x="299" y="0" type="line"/>
      <point x="410" y="0" type="line"/>
      <point x="431" y="151" type="line"/>
      <point x="529" y="151" type="line"/>
      <point x="529" y="261" type="line"/>
      <point x="446" y="261" type="line"/>
      <point x="457" y="337" type="line"/>
    </contour>
    <contour>
      <point x="335" y="261" type="line"/>
      <point x="254" y="261" type="line"/>
      <point x="265" y="337" type="line"/>
      <point x="346" y="337" type="line"/>
    </contour>
  </outline>
</glyph>
<glyph name="dollar" format="2">
  <advance width="499"/>
  <unicode hex="0024"/>
  <outline>
    <contour>
      <point x="305" y="316" type="curve"/>
      <point x="305" y="411" type="line"/>
      <point x="330" y="398"/>
      <point x="338" y="374"/>
      <point x="338" y="347" type="curve"/>
      <point x="448" y="347" type="line"/>
      <point x="448" y="440"/>
      <point x="395" y="507"/>
      <point x="305" y="527" type="curve"/>
      <point x="305" y="603" type="line"/>
      <point x="195" y="603" type="line"/>
      <point x="195" y="530" type="line"/>
      <point x="119" y="515"/>
      <point x="56" y="463"/>
      <point x="56" y="380" type="curve" smooth="yes"/>
      <point x="56" y="295"/>
      <point x="121" y="254"/>
      <point x="195" y="231" type="curve"/>
      <point x="195" y="107" type="line"/>
      <point x="168" y="120"/>
      <point x="149" y="143"/>
      <point x="149" y="174" type="curve" smooth="yes"/>
      <point x="149" y="177"/>
      <point x="149" y="179"/>
      <point x="149" y="182" type="curve"/>
      <point x="40" y="192" type="line"/>
      <point x="39" y="186"/>
      <point x="39" y="180"/>
      <point x="39" y="174" type="curve" smooth="yes"/>
      <point x="39" y="81"/>
      <point x="106" y="13"/>
      <point x="195" y="-8" type="curve"/>
      <point x="195" y="-85" type="line"/>
      <point x="305" y="-85" type="line"/>
      <point x="305" y="-12" type="line"/>
      <point x="393" y="3"/>
      <point x="461" y="63"/>
      <point x="461" y="158" type="curve" smooth="yes"/>
      <point x="461" y="254"/>
      <point x="388" y="293"/>
    </contour>
    <contour>
      <point x="166" y="381" type="curve" smooth="yes"/>
      <point x="166" y="400"/>
      <point x="181" y="410"/>
      <point x="195" y="416" type="curve"/>
      <point x="195" y="348" type="line"/>
      <point x="173" y="358"/>
      <point x="166" y="368"/>
    </contour>
    <contour>
      <point x="305" y="101" type="curve"/>
      <point x="305" y="201" type="line"/>
      <point x="341" y="188"/>
      <point x="351" y="176"/>
      <point x="351" y="155" type="curve" smooth="yes"/>
      <point x="351" y="126"/>
      <point x="331" y="109"/>
    </contour>
  </outline>
</glyph>
<glyph name="percent" format="2">
  <advance width="606"/>
  <unicode hex="0025"/>
  <outline>
    <contour>
      <point x="403" y="518" type="line"/>
      <point x="74" y="0" type="line"/>
      <point x="204" y="0" type="line"/>
      <point x="534" y="518" type="line"/>
    </contour>
    <contour>
      <point x="278" y="389" type="curve" smooth="yes"/>
      <point x="278" y="461"/>
      <point x="232" y="524"/>
      <point x="155" y="524" type="curve" smooth="yes"/>
      <point x="79" y="524"/>
      <point x="31" y="461"/>
      <point x="31" y="389" type="curve" smooth="yes"/>
      <point x="31" y="317"/>
      <point x="79" y="254"/>
      <point x="155" y="254" type="curve" smooth="yes"/>
      <point x="232" y="254"/>
      <point x="278" y="317"/>
    </contour>
    <contour>
      <point x="131" y="389" type="curve" smooth="yes"/>
      <point x="131" y="403"/>
      <point x="140" y="415"/>
      <point x="155" y="415" type="curve" smooth="yes"/>
      <point x="170" y="415"/>
      <point x="179" y="403"/>
      <point x="179" y="389" type="curve" smooth="yes"/>
      <point x="179" y="375"/>
      <point x="170" y="363"/>
      <point x="155" y="363" type="curve" smooth="yes"/>
      <point x="140" y="363"/>
      <point x="131" y="375"/>
    </contour>
    <contour>
      <point x="452" y="264" type="curve" smooth="yes"/>
      <point x="376" y="264"/>
      <point x="329" y="201"/>
      <point x="329" y="129" type="curve" smooth="yes"/>
      <point x="329" y="57"/>
      <point x="376" y="-6"/>
      <point x="452" y="-6" type="curve" smooth="yes"/>
      <point x="529" y="-6"/>
      <point x="575" y="57"/>
      <point x="575" y="129" type="curve" smooth="yes"/>
      <point x="575" y="201"/>
      <point x="529" y="264"/>
    </contour>
    <contour>
      <point x="452" y="103" type="curve" smooth="yes"/>
      <point x="437" y="103"/>
      <point x="428" y="115"/>
      <point x="428" y="129" type="curve" smooth="yes"/>
      <point x="428" y="143"/>
      <point x="437" y="155"/>
      <point x="452" y="155" type="curve" smooth="yes"/>
      <point x="467" y="155"/>
      <point x="476" y="143"/>
      <point x="476" y="129" type="curve" smooth="yes"/>
      <point x="476" y="115"/>
      <point x="467" y="103"/>
    </contour>
  </outline>
</glyph>
<glyph name="ampersand" format="2">
  <advance width="608"/>
  <unicode hex="0026"/>
  <outline>
    <contour>
      <point x="517" y="250" type="curve"/>
      <point x="423" y="250" type="line"/>
      <point x="422" y="247"/>
      <point x="413" y="221"/>
      <point x="393" y="188" type="curve"/>
      <point x="203" y="391" type="line"/>
      <point x="183" y="412"/>
      <point x="169" y="436"/>
      <point x="169" y="457" type="curve" smooth="yes"/>
      <point x="169" y="483"/>
      <point x="188" y="513"/>
      <point x="224" y="513" type="curve" smooth="yes"/>
      <point x="260" y="513"/>
      <point x="279" y="483"/>
      <point x="279" y="452" type="curve"/>
      <point x="369" y="452" type="line"/>
      <point x="369" y="535"/>
      <point x="308" y="603"/>
      <point x="224" y="603" type="curve" smooth="yes"/>
      <point x="142" y="603"/>
      <point x="79" y="536"/>
      <point x="79" y="457" type="curve" smooth="yes"/>
      <point x="79" y="413"/>
      <point x="98" y="379"/>
      <point x="117" y="354" type="curve"/>
      <point x="70" y="314"/>
      <point x="39" y="259"/>
      <point x="39" y="196" type="curve" smooth="yes"/>
      <point x="39" y="83"/>
      <point x="137" y="0"/>
      <point x="248" y="0" type="curve" smooth="yes"/>
      <point x="302" y="0"/>
      <point x="352" y="19"/>
      <point x="396" y="54" type="curve"/>
      <point x="447" y="0" type="line"/>
      <point x="570" y="0" type="line"/>
      <point x="457" y="121" type="line"/>
      <point x="497" y="181"/>
      <point x="512" y="215"/>
    </contour>
    <contour>
      <point x="249" y="90" type="curve" smooth="yes"/>
      <point x="186" y="90"/>
      <point x="129" y="134"/>
      <point x="129" y="195" type="curve" smooth="yes"/>
      <point x="129" y="229"/>
      <point x="146" y="261"/>
      <point x="177" y="287" type="curve"/>
      <point x="334" y="120" type="line"/>
      <point x="310" y="103"/>
      <point x="282" y="90"/>
    </contour>
  </outline>
</glyph>
<glyph name="quotesingle" format="2">
  <advance width="205"/>
  <unicode hex="0027"/>
  <outline>
    <contour>
      <point x="63" y="437" type="line"/>
      <point x="37" y="495"/>
      <point x="18" y="567"/>
      <point x="18" y="630" type="curve"/>
      <point x="128" y="630" type="line"/>
      <point x="128" y="574"/>
      <point x="154" y="484"/>
      <point x="188" y="437" type="curve"/>
    </contour>
  </outline>
</glyph>
<glyph name="parenleft" format="2">
  <advance width="290"/>
  <unicode hex="0028"/>
  <outline>
    <contour>
      <point x="139" y="305" type="curve" smooth="yes"/>
      <point x="139" y="181"/>
      <point x="180" y="58"/>
      <point x="255" y="-52" type="curve" smooth="yes"/>
      <point x="273" y="-80" type="line"/>
      <point x="153" y="-80" type="line"/>
      <point x="147" y="-69" type="line" smooth="yes"/>
      <point x="73" y="47"/>
      <point x="31" y="175"/>
      <point x="31" y="305" type="curve" smooth="yes"/>
      <point x="31" y="435"/>
      <point x="72" y="563"/>
      <point x="147" y="678" type="curve" smooth="yes"/>
      <point x="154" y="689" type="line"/>
      <point x="272" y="689" type="line"/>
      <point x="254" y="661" type="line" smooth="yes"/>
      <point x="180" y="551"/>
      <point x="139" y="429"/>
    </contour>
  </outline>
</glyph>
<glyph name="parenright" format="2">
  <advance width="290"/>
  <unicode hex="0029"/>
  <outline>
    <contour>
      <point x="138" y="688" type="line"/>
      <point x="144" y="677" type="line" smooth="yes"/>
      <point x="219" y="562"/>
      <point x="259" y="434"/>
      <point x="259" y="304" type="curve" smooth="yes"/>
      <point x="259" y="174"/>
      <point x="219" y="46"/>
      <point x="144" y="-70" type="curve" smooth="yes"/>
      <point x="138" y="-81" type="line"/>
      <point x="18" y="-81" type="line"/>
      <point x="37" y="-53" type="line" smooth="yes"/>
      <point x="111" y="57"/>
      <point x="152" y="180"/>
      <point x="152" y="304" type="curve" smooth="yes"/>
      <point x="152" y="428"/>
      <point x="111" y="550"/>
      <point x="37" y="660" type="curve" smooth="yes"/>
      <point x="19" y="688" type="line"/>
    </contour>
  </outline>
</glyph>
<glyph name="asterisk" format="2">
  <advance width="437"/>
  <unicode hex="002A"/>
  <outline>
    <contour>
      <point x="399" y="347" type="line"/>
      <point x="365" y="452" type="line"/>
      <point x="274" y="422" type="line"/>
      <point x="274" y="518" type="line"/>
      <point x="164" y="518" type="line"/>
      <point x="164" y="422" type="line"/>
      <point x="73" y="452" type="line"/>
      <point x="39" y="347" type="line"/>
      <point x="130" y="318" type="line"/>
      <point x="74" y="240" type="line"/>
      <point x="163" y="176" type="line"/>
      <point x="219" y="253" type="line"/>
      <point x="275" y="176" type="line"/>
      <point x="364" y="240" type="line"/>
      <point x="308" y="318" type="line"/>
    </contour>
  </outline>
</glyph>
<glyph name="plus" format="2">
  <advance width="415"/>
  <unicode hex="002B"/>
  <outline>
    <contour>
      <point x="398" y="314" type="line"/>
      <point x="263" y="314" type="line"/>
      <point x="263" y="449" type="line"/>
      <point x="153" y="449" type="line"/>
      <point x="153" y="314" type="line"/>
      <point x="18" y="314" type="line"/>
      <point x="18" y="204" type="line"/>
      <point x="153" y="204" type="line"/>
      <point x="153" y="69" type="line"/>
      <point x="263" y="69" type="line"/>
      <point x="263" y="204" type="line"/>
      <point x="398" y="204" type="line"/>
    </contour>
  </outline>
</glyph>
<glyph name="comma" format="2">
  <advance width="205"/>
  <unicode hex="002C"/>
  <outline>
    <contour>
      <point x="143" y="-85" type="line"/>
      <point x="169" y="-27"/>
      <point x="188" y="44"/>
      <point x="188" y="108" type="curve"/>
      <point x="78" y="108" type="line"/>
      <point x="78" y="52"/>
      <point x="52" y="-39"/>
      <point x="18" y="-85" type="curve"/>
    </contour>
  </outline>
</glyph>
<glyph name="hyphen" format="2">
  <advance width="242"/>
  <unicode hex="002D"/>
  <outline>
    <contour>
      <point x="225" y="302" type="line"/>
      <point x="18" y="302" type="line"/>
      <point x="18" y="412" type="line"/>
      <point x="225" y="412" type="line"/>
    </contour>
  </outline>
</glyph>
<glyph name="period" format="2">
  <advance width="145"/>
  <unicode hex="002E"/>
  <outline>
    <contour>
      <point x="128" y="0" type="line"/>
      <point x="18" y="0" type="line"/>
      <point x="18" y="129" type="line"/>
      <point x="128" y="129" type="line"/>
    </contour>
  </outline>
</glyph>
<glyph name="slash" format="2">
  <advance width="549"/>
  <unicode hex="002F"/>
  <outline>
    <contour>
      <point x="411" y="684" type="line"/>
      <point x="18" y="-163" type="line"/>
      <point x="139" y="-163" type="line"/>
      <point x="532" y="683" type="line"/>
      <point x="531" y="684" type="line"/>
    </contour>
  </outline>
</glyph>
<glyph name="zero" format="2">
  <advance width="499"/>
  <unicode hex="0030"/>
  <outline>
    <contour>
      <point x="250" y="0" type="curve" smooth="yes"/>
      <point x="93" y="0"/>
      <point x="31" y="163"/>
      <point x="31" y="301" type="curve" smooth="yes"/>
      <point x="31" y="437"/>
      <point x="90" y="603"/>
      <point x="249" y="603" type="curve" smooth="yes"/>
      <point x="407" y="603"/>
      <point x="468" y="438"/>
      <point x="468" y="302" type="curve" smooth="yes"/>
      <point x="468" y="168"/>
      <point x="410" y="0"/>
    </contour>
    <contour>
      <point x="250" y="493" type="curve" smooth="yes"/>
      <point x="165" y="493"/>
      <point x="142" y="373"/>
      <point x="142" y="302" type="curve" smooth="yes"/>
      <point x="142" y="230"/>
      <point x="165" y="110"/>
      <point x="250" y="110" type="curve" smooth="yes"/>
      <point x="335" y="110"/>
      <point x="358" y="230"/>
      <point x="358" y="302" type="curve" smooth="yes"/>
      <point x="358" y="373"/>
      <point x="335" y="493"/>
    </contour>
  </outline>
</glyph>
<glyph name="one" format="2">
  <advance width="329"/>
  <unicode hex="0031"/>
  <outline>
    <contour>
      <point x="147" y="603" type="line"/>
      <point x="18" y="514" type="line"/>
      <point x="80" y="424" type="line"/>
      <point x="160" y="478" type="line"/>
      <point x="160" y="0" type="line"/>
      <point x="270" y="0" type="line"/>
      <point x="270" y="603" type="line"/>
    </contour>
  </outline>
</glyph>
<glyph name="two" format="2">
  <advance width="474"/>
  <unicode hex="0032"/>
  <outline>
    <contour>
      <point x="208" y="110" type="line"/>
      <point x="265" y="169"/>
      <point x="337" y="245"/>
      <point x="389" y="300" type="curve" smooth="yes"/>
      <point x="423" y="337"/>
      <point x="441" y="380"/>
      <point x="441" y="422" type="curve" smooth="yes"/>
      <point x="441" y="528"/>
      <point x="335" y="603"/>
      <point x="233" y="603" type="curve" smooth="yes"/>
      <point x="121" y="603"/>
      <point x="31" y="512"/>
      <point x="31" y="395" type="curve"/>
      <point x="142" y="395" type="line"/>
      <point x="142" y="472"/>
      <point x="205" y="493"/>
      <point x="237" y="493" type="curve" smooth="yes"/>
      <point x="275" y="493"/>
      <point x="331" y="463"/>
      <point x="331" y="422" type="curve" smooth="yes"/>
      <point x="331" y="411"/>
      <point x="327" y="395"/>
      <point x="308" y="375" type="curve" smooth="yes"/>
      <point x="222" y="284"/>
      <point x="79" y="134"/>
      <point x="47" y="100" type="curve"/>
      <point x="47" y="0" type="line"/>
      <point x="443" y="0" type="line"/>
      <point x="443" y="110" type="line"/>
    </contour>
  </outline>
</glyph>
<glyph name="three" format="2">
  <advance width="513"/>
  <unicode hex="0033"/>
  <outline>
    <contour>
      <point x="416" y="323" type="curve"/>
      <point x="444" y="352"/>
      <point x="458" y="392"/>
      <point x="458" y="432" type="curve" smooth="yes"/>
      <point x="458" y="541"/>
      <point x="354" y="603"/>
      <point x="252" y="603" type="curve" smooth="yes"/>
      <point x="134" y="603"/>
      <point x="39" y="520"/>
      <point x="39" y="395" type="curve"/>
      <point x="149" y="395" type="line"/>
      <point x="149" y="467"/>
      <point x="204" y="493"/>
      <point x="253" y="493" type="curve" smooth="yes"/>
      <point x="300" y="493"/>
      <point x="348" y="469"/>
      <point x="348" y="427" type="curve" smooth="yes"/>
      <point x="348" y="382"/>
      <point x="291" y="375"/>
      <point x="253" y="375" type="curve" smooth="yes"/>
      <point x="232" y="375" type="line"/>
      <point x="232" y="265" type="line"/>
      <point x="253" y="265" type="line" smooth="yes"/>
      <point x="345" y="265"/>
      <point x="365" y="224"/>
      <point x="365" y="191" type="curve" smooth="yes"/>
      <point x="365" y="137"/>
      <point x="314" y="110"/>
      <point x="263" y="110" type="curve" smooth="yes"/>
      <point x="221" y="110"/>
      <point x="149" y="131"/>
      <point x="149" y="208" type="curve"/>
      <point x="39" y="208" type="line"/>
      <point x="39" y="83"/>
      <point x="141" y="0"/>
      <point x="260" y="0" type="curve" smooth="yes"/>
      <point x="372" y="0"/>
      <point x="475" y="72"/>
      <point x="475" y="188" type="curve" smooth="yes"/>
      <point x="475" y="239"/>
      <point x="454" y="289"/>
    </contour>
  </outline>
</glyph>
<glyph name="four" format="2">
  <advance width="489"/>
  <unicode hex="0034"/>
  <outline>
    <contour>
      <point x="409" y="603" type="line"/>
      <point x="304" y="603" type="line"/>
      <point x="31" y="197" type="line"/>
      <point x="31" y="93" type="line"/>
      <point x="299" y="93" type="line"/>
      <point x="299" y="0" type="line"/>
      <point x="409" y="0" type="line"/>
      <point x="409" y="93" type="line"/>
      <point x="472" y="93" type="line"/>
      <point x="472" y="203" type="line"/>
      <point x="409" y="203" type="line"/>
    </contour>
    <contour>
      <point x="299" y="203" type="line"/>
      <point x="169" y="203" type="line"/>
      <point x="299" y="398" type="line"/>
    </contour>
  </outline>
</glyph>
<glyph name="five" format="2">
  <advance width="527"/>
  <unicode hex="0035"/>
  <outline>
    <contour>
      <point x="271" y="441" type="curve" smooth="yes"/>
      <point x="243" y="441"/>
      <point x="216" y="437"/>
      <point x="192" y="428" type="curve"/>
      <point x="199" y="493" type="line"/>
      <point x="453" y="493" type="line"/>
      <point x="453" y="603" type="line"/>
      <point x="101" y="603" type="line"/>
      <point x="66" y="296" type="line"/>
      <point x="172" y="270" type="line"/>
      <point x="187" y="310"/>
      <point x="222" y="331"/>
      <point x="271" y="331" type="curve" smooth="yes"/>
      <point x="372" y="331"/>
      <point x="379" y="246"/>
      <point x="379" y="221" type="curve" smooth="yes"/>
      <point x="379" y="195"/>
      <point x="372" y="110"/>
      <point x="271" y="110" type="curve" smooth="yes"/>
      <point x="171" y="110"/>
      <point x="163" y="195"/>
      <point x="163" y="221" type="curve"/>
      <point x="53" y="221" type="line"/>
      <point x="53" y="92"/>
      <point x="141" y="0"/>
      <point x="271" y="0" type="curve" smooth="yes"/>
      <point x="402" y="0"/>
      <point x="489" y="93"/>
      <point x="489" y="220" type="curve" smooth="yes"/>
      <point x="489" y="349"/>
      <point x="401" y="441"/>
    </contour>
  </outline>
</glyph>
<glyph name="six" format="2">
  <advance width="523"/>
  <unicode hex="0036"/>
  <outline>
    <contour>
      <point x="277" y="460" type="curve"/>
      <point x="378" y="603" type="line"/>
      <point x="243" y="603" type="line"/>
      <point x="80" y="370" type="line"/>
      <point x="49" y="330"/>
      <point x="31" y="281"/>
      <point x="31" y="230" type="curve" smooth="yes"/>
      <point x="31" y="103"/>
      <point x="135" y="0"/>
      <point x="262" y="0" type="curve" smooth="yes"/>
      <point x="389" y="0"/>
      <point x="492" y="103"/>
      <point x="492" y="230" type="curve" smooth="yes"/>
      <point x="492" y="351"/>
      <point x="398" y="452"/>
    </contour>
    <contour>
      <point x="262" y="110" type="curve" smooth="yes"/>
      <point x="196" y="110"/>
      <point x="142" y="164"/>
      <point x="142" y="230" type="curve" smooth="yes"/>
      <point x="142" y="254"/>
      <point x="149" y="276"/>
      <point x="161" y="294" type="curve" smooth="yes"/>
      <point x="167" y="304" type="line" smooth="yes"/>
      <point x="189" y="332"/>
      <point x="224" y="350"/>
      <point x="262" y="350" type="curve" smooth="yes"/>
      <point x="328" y="350"/>
      <point x="382" y="296"/>
      <point x="382" y="230" type="curve" smooth="yes"/>
      <point x="382" y="164"/>
      <point x="328" y="110"/>
    </contour>
  </outline>
</glyph>
<glyph name="seven" format="2">
  <advance width="430"/>
  <unicode hex="0037"/>
  <outline>
    <contour>
      <point x="55" y="0" type="line"/>
      <point x="176" y="0" type="line"/>
      <point x="413" y="501" type="line"/>
      <point x="413" y="603" type="line"/>
      <point x="18" y="603" type="line"/>
      <point x="18" y="493" type="line"/>
      <point x="287" y="493" type="line"/>
    </contour>
  </outline>
  <guideline angle="0" x="0" y="603"/>
</glyph>
<glyph name="eight" format="2">
  <advance width="505"/>
  <unicode hex="0038"/>
  <outline>
    <contour>
      <point x="410" y="323" type="curve"/>
      <point x="438" y="352"/>
      <point x="451" y="392"/>
      <point x="451" y="433" type="curve" smooth="yes"/>
      <point x="451" y="543"/>
      <point x="354" y="602"/>
      <point x="253" y="602" type="curve" smooth="yes"/>
      <point x="152" y="602"/>
      <point x="55" y="543"/>
      <point x="55" y="433" type="curve" smooth="yes"/>
      <point x="55" y="392"/>
      <point x="69" y="352"/>
      <point x="96" y="323" type="curve"/>
      <point x="58" y="288"/>
      <point x="39" y="238"/>
      <point x="39" y="187" type="curve" smooth="yes"/>
      <point x="39" y="69"/>
      <point x="142" y="0"/>
      <point x="253" y="0" type="curve" smooth="yes"/>
      <point x="364" y="0"/>
      <point x="467" y="69"/>
      <point x="467" y="188" type="curve" smooth="yes"/>
      <point x="467" y="238"/>
      <point x="448" y="289"/>
    </contour>
    <contour>
      <point x="253" y="493" type="curve" smooth="yes"/>
      <point x="286" y="493"/>
      <point x="343" y="480"/>
      <point x="343" y="429" type="curve" smooth="yes"/>
      <point x="343" y="381"/>
      <point x="292" y="374"/>
      <point x="253" y="374" type="curve" smooth="yes"/>
      <point x="213" y="374"/>
      <point x="163" y="382"/>
      <point x="163" y="429" type="curve" smooth="yes"/>
      <point x="163" y="480"/>
      <point x="220" y="493"/>
    </contour>
    <contour>
      <point x="253" y="109" type="curve" smooth="yes"/>
      <point x="214" y="109"/>
      <point x="148" y="125"/>
      <point x="148" y="192" type="curve" smooth="yes"/>
      <point x="148" y="240"/>
      <point x="182" y="265"/>
      <point x="253" y="265" type="curve" smooth="yes"/>
      <point x="324" y="265"/>
      <point x="359" y="240"/>
      <point x="359" y="192" type="curve" smooth="yes"/>
      <point x="359" y="125"/>
      <point x="292" y="109"/>
    </contour>
  </outline>
</glyph>
<glyph name="nine" format="2">
  <advance width="523"/>
  <unicode hex="0039"/>
  <outline>
    <contour>
      <point x="247" y="143" type="curve"/>
      <point x="146" y="0" type="line"/>
      <point x="281" y="0" type="line"/>
      <point x="444" y="233" type="line"/>
      <point x="475" y="273"/>
      <point x="492" y="322"/>
      <point x="492" y="373" type="curve" smooth="yes"/>
      <point x="492" y="500"/>
      <point x="389" y="603"/>
      <point x="262" y="603" type="curve" smooth="yes"/>
      <point x="135" y="603"/>
      <point x="31" y="500"/>
      <point x="31" y="373" type="curve" smooth="yes"/>
      <point x="31" y="252"/>
      <point x="126" y="151"/>
    </contour>
    <contour>
      <point x="262" y="493" type="curve" smooth="yes"/>
      <point x="328" y="493"/>
      <point x="382" y="439"/>
      <point x="382" y="373" type="curve" smooth="yes"/>
      <point x="382" y="349"/>
      <point x="375" y="327"/>
      <point x="363" y="309" type="curve" smooth="yes"/>
      <point x="357" y="299" type="line" smooth="yes"/>
      <point x="335" y="271"/>
      <point x="301" y="253"/>
      <point x="262" y="253" type="curve" smooth="yes"/>
      <point x="196" y="253"/>
      <point x="142" y="307"/>
      <point x="142" y="373" type="curve" smooth="yes"/>
      <point x="142" y="439"/>
      <point x="196" y="493"/>
    </contour>
  </outline>
</glyph>
<glyph name="colon" format="2">
  <advance width="173"/>
  <unicode hex="003A"/>
  <outline>
    <contour>
      <point x="142" y="66" type="line"/>
      <point x="31" y="66" type="line"/>
      <point x="31" y="195" type="line"/>
      <point x="142" y="195" type="line"/>
    </contour>
    <contour>
      <point x="142" y="339" type="line"/>
      <point x="31" y="339" type="line"/>
      <point x="31" y="468" type="line"/>
      <point x="142" y="468" type="line"/>
    </contour>
  </outline>
</glyph>
<glyph name="semicolon" format="2">
  <advance width="241"/>
  <unicode hex="003B"/>
  <outline>
    <contour>
      <point x="209.956" y="180" type="curve"/>
      <point x="99.9563" y="180" type="line"/>
      <point x="99.9563" y="114.838"/>
      <point x="70.7701" y="23.5116"/>
      <point x="31.5" y="-30.0352" type="curve"/>
      <point x="147.448" y="-30.0352" type="line"/>
      <point x="167.559" y="-1.7737"/>
      <point x="209.956" y="82.8356"/>
    </contour>
    <contour>
      <point x="205.956" y="473.597" type="line"/>
      <point x="95.9563" y="473.597" type="line"/>
      <point x="95.9563" y="345.024" type="line"/>
      <point x="205.956" y="345.024" type="line"/>
    </contour>
  </outline>
</glyph>
<glyph name="less" format="2">
  <advance width="294"/>
  <unicode hex="003C"/>
  <outline>
    <contour>
      <point x="277" y="198" type="line"/>
      <point x="103" y="308" type="line"/>
      <point x="277" y="418" type="line"/>
      <point x="277" y="524" type="line"/>
      <point x="18" y="361" type="line"/>
      <point x="18" y="255" type="line"/>
      <point x="277" y="92" type="line"/>
    </contour>
  </outline>
</glyph>
<glyph name="equal" format="2">
  <advance width="423"/>
  <unicode hex="003D"/>
  <outline>
    <contour>
      <point x="31" y="134" type="line"/>
      <point x="392" y="134" type="line"/>
      <point x="392" y="244" type="line"/>
      <point x="31" y="244" type="line"/>
    </contour>
    <contour>
      <point x="31" y="385" type="line"/>
      <point x="31" y="275" type="line"/>
      <point x="392" y="275" type="line"/>
      <point x="392" y="385" type="line"/>
    </contour>
  </outline>
</glyph>
<glyph name="greater" format="2">
  <advance width="308"/>
  <unicode hex="003E"/>
  <outline>
    <contour>
      <point x="31" y="198" type="line"/>
      <point x="206" y="308" type="line"/>
      <point x="31" y="418" type="line"/>
      <point x="31" y="524" type="line"/>
      <point x="291" y="361" type="line"/>
      <point x="291" y="255" type="line"/>
      <point x="31" y="92" type="line"/>
    </contour>
  </outline>
</glyph>
<glyph name="question" format="2">
  <advance width="465"/>
  <unicode hex="003F"/>
  <outline>
    <contour>
      <point x="286" y="0" type="line"/>
      <point x="176" y="0" type="line"/>
      <point x="176" y="129" type="line"/>
      <point x="286" y="129" type="line"/>
    </contour>
    <contour>
      <point x="286" y="177" type="curve"/>
      <point x="176" y="177" type="line"/>
      <point x="176" y="273"/>
      <point x="212" y="328"/>
      <point x="281" y="389" type="curve" smooth="yes"/>
      <point x="311" y="416"/>
      <point x="325" y="442"/>
      <point x="325" y="466" type="curve" smooth="yes"/>
      <point x="325" y="507"/>
      <point x="285" y="529"/>
      <point x="246" y="529" type="curve" smooth="yes"/>
      <point x="189" y="529"/>
      <point x="142" y="479"/>
      <point x="142" y="403" type="curve"/>
      <point x="31" y="403" type="line"/>
      <point x="31" y="526"/>
      <point x="107" y="639"/>
      <point x="237" y="639" type="curve" smooth="yes"/>
      <point x="345" y="639"/>
      <point x="434" y="563"/>
      <point x="434" y="454" type="curve" smooth="yes"/>
      <point x="434" y="379"/>
      <point x="390" y="339"/>
      <point x="354" y="307" type="curve" smooth="yes"/>
      <point x="316" y="273"/>
      <point x="286" y="247"/>
    </contour>
  </outline>
</glyph>
<glyph name="at" format="2">
  <advance width="423"/>
  <unicode hex="0040"/>
  <outline>
    <contour>
      <point x="392" y="262" type="curve" smooth="yes"/>
      <point x="392" y="310"/>
      <point x="372" y="354"/>
      <point x="338" y="388" type="curve" smooth="yes"/>
      <point x="304" y="421"/>
      <point x="260" y="439"/>
      <point x="212" y="439" type="curve" smooth="yes"/>
      <point x="164" y="439"/>
      <point x="119" y="420"/>
      <point x="85" y="386" type="curve" smooth="yes"/>
      <point x="51" y="352"/>
      <point x="31" y="307"/>
      <point x="31" y="259" type="curve" smooth="yes"/>
      <point x="31" y="211"/>
      <point x="51" y="166"/>
      <point x="85" y="132" type="curve" smooth="yes"/>
      <point x="119" y="98"/>
      <point x="164" y="79"/>
      <point x="212" y="79" type="curve"/>
      <point x="212" y="79"/>
      <point x="212" y="79"/>
      <point x="213" y="79" type="curve"/>
      <point x="239" y="79"/>
      <point x="265" y="85"/>
      <point x="289" y="96" type="curve"/>
      <point x="263" y="151" type="line"/>
      <point x="247" y="143"/>
      <point x="230" y="139"/>
      <point x="212" y="139" type="curve"/>
      <point x="180" y="139"/>
      <point x="150" y="151"/>
      <point x="127" y="174" type="curve" smooth="yes"/>
      <point x="105" y="197"/>
      <point x="92" y="227"/>
      <point x="92" y="259" type="curve" smooth="yes"/>
      <point x="92" y="291"/>
      <point x="104" y="321"/>
      <point x="127" y="344" type="curve" smooth="yes"/>
      <point x="150" y="367"/>
      <point x="180" y="379"/>
      <point x="212" y="379" type="curve" smooth="yes"/>
      <point x="278" y="379"/>
      <point x="331" y="327"/>
      <point x="332" y="261" type="curve" smooth="yes"/>
      <point x="332" y="247"/>
      <point x="330" y="233"/>
      <point x="325" y="220" type="curve" smooth="yes"/>
      <point x="325" y="217"/>
      <point x="323" y="216"/>
      <point x="320" y="216" type="curve" smooth="yes"/>
      <point x="317" y="216"/>
      <point x="315" y="218"/>
      <point x="315" y="221" type="curve" smooth="yes"/>
      <point x="315" y="259" type="line" smooth="yes"/>
      <point x="315" y="316"/>
      <point x="269" y="362"/>
      <point x="212" y="362" type="curve" smooth="yes"/>
      <point x="155" y="362"/>
      <point x="109" y="316"/>
      <point x="109" y="259" type="curve" smooth="yes"/>
      <point x="109" y="202"/>
      <point x="155" y="156"/>
      <point x="212" y="156" type="curve" smooth="yes"/>
      <point x="235" y="156"/>
      <point x="256" y="164"/>
      <point x="273" y="176" type="curve"/>
      <point x="285" y="164"/>
      <point x="302" y="156"/>
      <point x="320" y="156" type="curve" smooth="yes"/>
      <point x="367" y="156"/>
      <point x="392" y="218"/>
    </contour>
    <contour>
      <point x="212" y="216" type="curve" smooth="yes"/>
      <point x="188" y="216"/>
      <point x="169" y="235"/>
      <point x="169" y="259" type="curve" smooth="yes"/>
      <point x="169" y="283"/>
      <point x="188" y="302"/>
      <point x="212" y="302" type="curve" smooth="yes"/>
      <point x="236" y="302"/>
      <point x="255" y="283"/>
      <point x="255" y="259" type="curve" smooth="yes"/>
      <point x="255" y="235"/>
      <point x="236" y="216"/>
    </contour>
  </outline>
</glyph>
<glyph name="A" format="2">
  <advance width="690"/>
  <unicode hex="0041"/>
  <outline>
    <contour>
      <point x="287" y="683" type="line"/>
      <point x="18" y="0" type="line"/>
      <point x="136" y="0" type="line"/>
      <point x="214" y="198" type="line"/>
      <point x="477" y="198" type="line"/>
      <point x="555" y="0" type="line"/>
      <point x="673" y="0" type="line"/>
      <point x="405" y="683" type="line"/>
    </contour>
    <contour>
      <point x="257" y="308" type="line"/>
      <point x="346" y="533" type="line"/>
      <point x="434" y="308" type="line"/>
    </contour>
  </outline>
</glyph>
<glyph name="B" format="2">
  <advance width="670"/>
  <unicode hex="0042"/>
  <outline>
    <contour>
      <point x="378" y="0" type="curve" smooth="yes"/>
      <point x="59" y="0" type="line"/>
      <point x="59" y="682" type="line"/>
      <point x="378" y="682" type="line" smooth="yes"/>
      <point x="489" y="682"/>
      <point x="608" y="620"/>
      <point x="608" y="498" type="curve" smooth="yes"/>
      <point x="608" y="447"/>
      <point x="588" y="402"/>
      <point x="552" y="367" type="curve"/>
      <point x="606" y="330"/>
      <point x="639" y="272"/>
      <point x="639" y="206" type="curve" smooth="yes"/>
      <point x="639" y="69"/>
      <point x="502" y="0"/>
    </contour>
    <contour>
      <point x="170" y="110" type="line"/>
      <point x="378" y="110" type="line" smooth="yes"/>
      <point x="439" y="110"/>
      <point x="529" y="135"/>
      <point x="529" y="209" type="curve" smooth="yes"/>
      <point x="529" y="282"/>
      <point x="439" y="305"/>
      <point x="382" y="305" type="curve"/>
      <point x="378" y="305" type="line"/>
      <point x="170" y="305" type="line"/>
    </contour>
    <contour>
      <point x="170" y="415" type="line"/>
      <point x="378" y="415" type="line"/>
      <point x="382" y="415" type="line"/>
      <point x="429" y="415"/>
      <point x="498" y="437"/>
      <point x="498" y="492" type="curve" smooth="yes"/>
      <point x="498" y="533"/>
      <point x="461" y="572"/>
      <point x="378" y="572" type="curve" smooth="yes"/>
      <point x="170" y="572" type="line"/>
    </contour>
  </outline>
</glyph>
<glyph name="C" format="2">
  <advance width="714"/>
  <unicode hex="0043"/>
  <outline>
    <contour>
      <point x="559" y="218" type="line"/>
      <point x="524" y="146"/>
      <point x="456" y="105"/>
      <point x="363" y="105" type="curve" smooth="yes"/>
      <point x="241" y="105"/>
      <point x="142" y="211"/>
      <point x="142" y="341" type="curve" smooth="yes"/>
      <point x="142" y="472"/>
      <point x="241" y="578"/>
      <point x="363" y="578" type="curve" smooth="yes"/>
      <point x="456" y="578"/>
      <point x="524" y="537"/>
      <point x="559" y="465" type="curve"/>
      <point x="676" y="465" type="line"/>
      <point x="634" y="604"/>
      <point x="513" y="688"/>
      <point x="371" y="688" type="curve" smooth="yes"/>
      <point x="175" y="688"/>
      <point x="31" y="529"/>
      <point x="31" y="340" type="curve" smooth="yes"/>
      <point x="31" y="152"/>
      <point x="176" y="-5"/>
      <point x="370" y="-5" type="curve" smooth="yes"/>
      <point x="510" y="-5"/>
      <point x="633" y="76"/>
      <point x="676" y="218" type="curve"/>
    </contour>
  </outline>
</glyph>
<glyph name="D" format="2">
  <advance width="701"/>
  <unicode hex="0044"/>
  <outline>
    <contour>
      <point x="297" y="0" type="curve" smooth="yes"/>
      <point x="59" y="0" type="line"/>
      <point x="59" y="682" type="line"/>
      <point x="297" y="682" type="line" smooth="yes"/>
      <point x="502" y="682"/>
      <point x="670" y="550"/>
      <point x="670" y="342" type="curve" smooth="yes"/>
      <point x="670" y="132"/>
      <point x="501" y="0"/>
    </contour>
    <contour>
      <point x="170" y="110" type="line"/>
      <point x="297" y="110" type="line" smooth="yes"/>
      <point x="436" y="110"/>
      <point x="560" y="190"/>
      <point x="560" y="335" type="curve" smooth="yes"/>
      <point x="560" y="452"/>
      <point x="478" y="572"/>
      <point x="297" y="572" type="curve" smooth="yes"/>
      <point x="170" y="572" type="line"/>
    </contour>
  </outline>
  <guideline angle="0" x="0" y="840"/>
</glyph>
<glyph name="E" format="2">
  <advance width="597"/>
  <unicode hex="0045"/>
  <outline>
    <contour>
      <point x="170" y="110" type="line"/>
      <point x="170" y="301" type="line"/>
      <point x="511" y="301" type="line"/>
      <point x="511" y="411" type="line"/>
      <point x="170" y="411" type="line"/>
      <point x="170" y="572" type="line"/>
      <point x="551" y="572" type="line"/>
      <point x="551" y="682" type="line"/>
      <point x="59" y="682" type="line"/>
      <point x="59" y="0" type="line"/>
      <point x="559" y="0" type="line"/>
      <point x="559" y="110" type="line"/>
    </contour>
  </outline>
</glyph>
<glyph name="F" format="2">
  <advance width="544"/>
  <unicode hex="0046"/>
  <outline>
    <contour>
      <point x="527" y="572" type="line"/>
      <point x="527" y="682" type="line"/>
      <point x="59" y="682" type="line"/>
      <point x="59" y="0" type="line"/>
      <point x="170" y="0" type="line"/>
      <point x="170" y="289" type="line"/>
      <point x="487" y="289" type="line"/>
      <point x="487" y="399" type="line"/>
      <point x="170" y="399" type="line"/>
      <point x="170" y="572" type="line"/>
    </contour>
  </outline>
</glyph>
<glyph name="G" format="2">
  <advance width="747"/>
  <unicode hex="0047"/>
  <outline>
    <contour>
      <point x="378" y="266" type="line"/>
      <point x="575" y="266" type="line"/>
      <point x="551" y="164"/>
      <point x="474" y="105"/>
      <point x="363" y="105" type="curve" smooth="yes"/>
      <point x="241" y="105"/>
      <point x="142" y="211"/>
      <point x="142" y="341" type="curve" smooth="yes"/>
      <point x="142" y="472"/>
      <point x="241" y="578"/>
      <point x="372" y="578" type="curve" smooth="yes"/>
      <point x="443" y="578"/>
      <point x="506" y="547"/>
      <point x="544" y="490" type="curve"/>
      <point x="667" y="490" type="line"/>
      <point x="618" y="616"/>
      <point x="501" y="688"/>
      <point x="370" y="688" type="curve" smooth="yes"/>
      <point x="175" y="688"/>
      <point x="31" y="529"/>
      <point x="31" y="340" type="curve" smooth="yes"/>
      <point x="31" y="150"/>
      <point x="177" y="-5"/>
      <point x="373" y="-5" type="curve" smooth="yes"/>
      <point x="555" y="-5"/>
      <point x="684" y="127"/>
      <point x="693" y="318" type="curve" smooth="yes"/>
      <point x="695" y="376" type="line"/>
      <point x="378" y="376" type="line"/>
    </contour>
  </outline>
</glyph>
<glyph name="H" format="2">
  <advance width="704"/>
  <unicode hex="0048"/>
  <outline>
    <contour>
      <point x="535" y="683" type="line"/>
      <point x="535" y="417" type="line"/>
      <point x="170" y="417" type="line"/>
      <point x="170" y="683" type="line"/>
      <point x="59" y="683" type="line"/>
      <point x="59" y="0" type="line"/>
      <point x="170" y="0" type="line"/>
      <point x="170" y="307" type="line"/>
      <point x="535" y="307" type="line"/>
      <point x="535" y="0" type="line"/>
      <point x="645" y="0" type="line"/>
      <point x="645" y="683" type="line"/>
    </contour>
  </outline>
</glyph>
<glyph name="I" format="2">
  <advance width="229"/>
  <unicode hex="0049"/>
  <outline>
    <contour>
      <point x="170" y="0" type="line"/>
      <point x="59" y="0" type="line"/>
      <point x="59" y="683" type="line"/>
      <point x="170" y="683" type="line"/>
    </contour>
  </outline>
</glyph>
<glyph name="J" format="2">
  <advance width="551"/>
  <unicode hex="004A"/>
  <outline>
    <contour>
      <point x="265" y="-4" type="curve" smooth="yes"/>
      <point x="140" y="-4"/>
      <point x="39" y="97"/>
      <point x="39" y="222" type="curve" smooth="yes"/>
      <point x="39" y="253" type="line"/>
      <point x="149" y="253" type="line"/>
      <point x="149" y="222" type="line" smooth="yes"/>
      <point x="149" y="158"/>
      <point x="201" y="106"/>
      <point x="265" y="106" type="curve" smooth="yes"/>
      <point x="329" y="106"/>
      <point x="382" y="158"/>
      <point x="382" y="222" type="curve" smooth="yes"/>
      <point x="382" y="684" type="line"/>
      <point x="492" y="684" type="line"/>
      <point x="492" y="222" type="line" smooth="yes"/>
      <point x="492" y="97"/>
      <point x="390" y="-4"/>
    </contour>
  </outline>
  <guideline angle="0" x="0" y="684"/>
</glyph>
<glyph name="K" format="2">
  <advance width="705"/>
  <unicode hex="004B"/>
  <outline>
    <contour>
      <point x="671" y="683" type="line"/>
      <point x="508" y="683" type="line"/>
      <point x="170" y="375" type="line"/>
      <point x="170" y="683" type="line"/>
      <point x="59" y="683" type="line"/>
      <point x="59" y="0" type="line"/>
      <point x="170" y="0" type="line"/>
      <point x="170" y="226" type="line"/>
      <point x="277" y="323" type="line"/>
      <point x="545" y="0" type="line"/>
      <point x="688" y="0" type="line"/>
      <point x="358" y="398" type="line"/>
    </contour>
  </outline>
</glyph>
<glyph name="L" format="2">
  <advance width="542"/>
  <unicode hex="004C"/>
  <outline>
    <contour>
      <point x="525" y="0" type="line"/>
      <point x="59" y="0" type="line"/>
      <point x="59" y="683" type="line"/>
      <point x="170" y="683" type="line"/>
      <point x="170" y="110" type="line"/>
      <point x="525" y="110" type="line"/>
    </contour>
  </outline>
</glyph>
<glyph name="M" format="2">
  <advance width="849"/>
  <unicode hex="004D"/>
  <outline>
    <contour>
      <point x="675" y="683" type="line"/>
      <point x="422" y="132" type="line"/>
      <point x="169" y="683" type="line"/>
      <point x="53" y="683" type="line"/>
      <point x="53" y="0" type="line"/>
      <point x="163" y="0" type="line"/>
      <point x="163" y="431" type="line"/>
      <point x="361" y="0" type="line"/>
      <point x="482" y="0" type="line"/>
      <point x="680" y="431" type="line"/>
      <point x="680" y="0" type="line"/>
      <point x="790" y="0" type="line"/>
      <point x="790" y="683" type="line"/>
    </contour>
  </outline>
</glyph>
<glyph name="N" format="2">
  <advance width="693"/>
  <unicode hex="004E"/>
  <outline>
    <contour>
      <point x="634" y="0" type="line"/>
      <point x="634" y="683" type="line"/>
      <point x="524" y="683" type="line"/>
      <point x="524" y="179" type="line"/>
      <point x="181" y="683" type="line"/>
      <point x="59" y="683" type="line"/>
      <point x="59" y="0" type="line"/>
      <point x="170" y="0" type="line"/>
      <point x="170" y="504" type="line"/>
      <point x="513" y="0" type="line"/>
    </contour>
  </outline>
</glyph>
<glyph name="O" format="2">
  <advance width="747"/>
  <unicode hex="004F"/>
  <outline>
    <contour>
      <point x="374" y="-5" type="curve" smooth="yes"/>
      <point x="185" y="-5"/>
      <point x="31" y="149"/>
      <point x="31" y="340" type="curve" smooth="yes"/>
      <point x="31" y="528"/>
      <point x="181" y="688"/>
      <point x="374" y="688" type="curve" smooth="yes"/>
      <point x="563" y="688"/>
      <point x="716" y="530"/>
      <point x="716" y="340" type="curve" smooth="yes"/>
      <point x="716" y="150"/>
      <point x="565" y="-5"/>
    </contour>
    <contour>
      <point x="374" y="578" type="curve" smooth="yes"/>
      <point x="246" y="578"/>
      <point x="142" y="471"/>
      <point x="142" y="340" type="curve" smooth="yes"/>
      <point x="142" y="208"/>
      <point x="244" y="105"/>
      <point x="374" y="105" type="curve" smooth="yes"/>
      <point x="504" y="105"/>
      <point x="606" y="208"/>
      <point x="606" y="340" type="curve" smooth="yes"/>
      <point x="606" y="471"/>
      <point x="502" y="578"/>
    </contour>
  </outline>
</glyph>
<glyph name="P" format="2">
  <advance width="644"/>
  <unicode hex="0050"/>
  <outline>
    <contour>
      <point x="170" y="0" type="line"/>
      <point x="59" y="0" type="line"/>
      <point x="59" y="724" type="line"/>
      <point x="386" y="724" type="line" smooth="yes"/>
      <point x="508" y="724"/>
      <point x="613" y="648"/>
      <point x="613" y="520" type="curve" smooth="yes"/>
      <point x="613" y="394"/>
      <point x="509" y="310"/>
      <point x="386" y="310" type="curve" smooth="yes"/>
      <point x="170" y="310" type="line"/>
    </contour>
    <contour>
      <point x="170" y="420" type="line"/>
      <point x="386" y="420" type="line" smooth="yes"/>
      <point x="466" y="420"/>
      <point x="503" y="470"/>
      <point x="503" y="519" type="curve" smooth="yes"/>
      <point x="503" y="563"/>
      <point x="472" y="614"/>
      <point x="386" y="614" type="curve" smooth="yes"/>
      <point x="170" y="614" type="line"/>
    </contour>
  </outline>
</glyph>
<glyph name="Q" format="2">
  <advance width="747"/>
  <unicode hex="0051"/>
  <outline>
    <contour>
      <point x="716" y="341" type="curve" smooth="yes"/>
      <point x="716" y="529"/>
      <point x="566" y="689"/>
      <point x="374" y="689" type="curve" smooth="yes"/>
      <point x="184" y="689"/>
      <point x="31" y="531"/>
      <point x="31" y="341" type="curve" smooth="yes"/>
      <point x="31" y="151"/>
      <point x="183" y="-4"/>
      <point x="374" y="-4" type="curve" smooth="yes"/>
      <point x="433" y="-4"/>
      <point x="492" y="11"/>
      <point x="543" y="41" type="curve"/>
      <point x="637" y="-30" type="line"/>
      <point x="703" y="58" type="line"/>
      <point x="631" y="112" type="line"/>
      <point x="686" y="175"/>
      <point x="716" y="256"/>
    </contour>
    <contour>
      <point x="374" y="106" type="curve" smooth="yes"/>
      <point x="244" y="106"/>
      <point x="142" y="209"/>
      <point x="142" y="341" type="curve" smooth="yes"/>
      <point x="142" y="472"/>
      <point x="246" y="579"/>
      <point x="374" y="579" type="curve" smooth="yes"/>
      <point x="502" y="579"/>
      <point x="606" y="472"/>
      <point x="606" y="341" type="curve" smooth="yes"/>
      <point x="606" y="277"/>
      <point x="582" y="220"/>
      <point x="543" y="178" type="curve"/>
      <point x="472" y="232" type="line"/>
      <point x="406" y="144" type="line"/>
      <point x="443" y="116" type="line"/>
      <point x="421" y="110"/>
      <point x="398" y="106"/>
    </contour>
  </outline>
</glyph>
<glyph name="R" format="2">
  <advance width="654"/>
  <unicode hex="0052"/>
  <outline>
    <contour>
      <point x="170" y="0" type="line"/>
      <point x="170" y="266" type="line"/>
      <point x="386" y="266" type="line"/>
      <point x="390" y="266" type="line"/>
      <point x="516" y="0" type="line"/>
      <point x="637" y="0" type="line"/>
      <point x="500" y="292" type="line"/>
      <point x="570" y="328"/>
      <point x="613" y="399"/>
      <point x="613" y="479" type="curve" smooth="yes"/>
      <point x="613" y="604"/>
      <point x="507" y="680"/>
      <point x="386" y="680" type="curve" smooth="yes"/>
      <point x="59" y="680" type="line"/>
      <point x="59" y="0" type="line"/>
    </contour>
    <contour>
      <point x="170" y="570" type="line"/>
      <point x="386" y="570" type="line" smooth="yes"/>
      <point x="472" y="570"/>
      <point x="503" y="519"/>
      <point x="503" y="475" type="curve" smooth="yes"/>
      <point x="503" y="426"/>
      <point x="466" y="376"/>
      <point x="386" y="376" type="curve" smooth="yes"/>
      <point x="170" y="376" type="line"/>
    </contour>
  </outline>
</glyph>
<glyph name="S" format="2">
  <advance width="636"/>
  <unicode hex="0053"/>
  <outline>
    <contour>
      <point x="333" y="-5" type="curve" smooth="yes"/>
      <point x="190" y="-5"/>
      <point x="31" y="71"/>
      <point x="31" y="229" type="curve" smooth="yes"/>
      <point x="31" y="236"/>
      <point x="31" y="244"/>
      <point x="33" y="252" type="curve"/>
      <point x="143" y="240" type="line"/>
      <point x="142" y="237"/>
      <point x="142" y="233"/>
      <point x="142" y="229" type="curve" smooth="yes"/>
      <point x="142" y="138"/>
      <point x="255" y="105"/>
      <point x="332" y="105" type="curve" smooth="yes"/>
      <point x="394" y="105"/>
      <point x="495" y="126"/>
      <point x="495" y="202" type="curve" smooth="yes"/>
      <point x="495" y="256"/>
      <point x="443" y="276"/>
      <point x="317" y="305" type="curve" smooth="yes"/>
      <point x="207" y="329"/>
      <point x="56" y="363"/>
      <point x="56" y="502" type="curve" smooth="yes"/>
      <point x="56" y="638"/>
      <point x="199" y="688"/>
      <point x="316" y="688" type="curve" smooth="yes"/>
      <point x="455" y="688"/>
      <point x="586" y="619"/>
      <point x="586" y="457" type="curve"/>
      <point x="476" y="457" type="line"/>
      <point x="476" y="557"/>
      <point x="386" y="578"/>
      <point x="314" y="578" type="curve" smooth="yes"/>
      <point x="228" y="578"/>
      <point x="166" y="547"/>
      <point x="166" y="501" type="curve" smooth="yes"/>
      <point x="166" y="459"/>
      <point x="218" y="440"/>
      <point x="341" y="412" type="curve" smooth="yes"/>
      <point x="457" y="386"/>
      <point x="605" y="353"/>
      <point x="605" y="204" type="curve" smooth="yes"/>
      <point x="605" y="58"/>
      <point x="463" y="-5"/>
    </contour>
  </outline>
</glyph>
<glyph name="T" format="2">
  <advance width="555"/>
  <unicode hex="0054"/>
  <outline>
    <contour>
      <point x="538" y="724" type="line"/>
      <point x="18" y="724" type="line"/>
      <point x="18" y="614" type="line"/>
      <point x="225" y="614" type="line"/>
      <point x="225" y="0" type="line"/>
      <point x="335" y="0" type="line"/>
      <point x="335" y="614" type="line"/>
      <point x="538" y="614" type="line"/>
    </contour>
  </outline>
</glyph>
<glyph name="U" format="2">
  <advance width="689"/>
  <unicode hex="0055"/>
  <outline>
    <contour>
      <point x="349" y="-3" type="curve" smooth="yes"/>
      <point x="189" y="-3"/>
      <point x="59" y="126"/>
      <point x="59" y="285" type="curve" smooth="yes"/>
      <point x="59" y="684" type="line"/>
      <point x="170" y="684" type="line"/>
      <point x="170" y="285" type="line" smooth="yes"/>
      <point x="170" y="187"/>
      <point x="250" y="107"/>
      <point x="349" y="107" type="curve" smooth="yes"/>
      <point x="447" y="107"/>
      <point x="527" y="187"/>
      <point x="527" y="285" type="curve" smooth="yes"/>
      <point x="527" y="684" type="line"/>
      <point x="637" y="684" type="line"/>
      <point x="637" y="285" type="line" smooth="yes"/>
      <point x="637" y="126"/>
      <point x="508" y="-3"/>
    </contour>
  </outline>
</glyph>
<glyph name="V" format="2">
  <advance width="673"/>
  <unicode hex="0056"/>
  <outline>
    <contour>
      <point x="538" y="683" type="line"/>
      <point x="337" y="155" type="line"/>
      <point x="136" y="683" type="line"/>
      <point x="18" y="683" type="line"/>
      <point x="278" y="0" type="line"/>
      <point x="396" y="0" type="line"/>
      <point x="656" y="683" type="line"/>
    </contour>
  </outline>
</glyph>
<glyph name="W" format="2">
  <advance width="959"/>
  <unicode hex="0057"/>
  <outline>
    <contour>
      <point x="828" y="683" type="line"/>
      <point x="683" y="193" type="line"/>
      <point x="537" y="683" type="line"/>
      <point x="423" y="683" type="line"/>
      <point x="278" y="193" type="line"/>
      <point x="132" y="683" type="line"/>
      <point x="23" y="683" type="line"/>
      <point x="18" y="682" type="line"/>
      <point x="220" y="0" type="line"/>
      <point x="335" y="0" type="line"/>
      <point x="480" y="489" type="line"/>
      <point x="625" y="0" type="line"/>
      <point x="740" y="0" type="line"/>
      <point x="942" y="680" type="line"/>
      <point x="932" y="683" type="line"/>
    </contour>
  </outline>
</glyph>
<glyph name="X" format="2">
  <advance width="676"/>
  <unicode hex="0058"/>
  <outline>
    <contour>
      <point x="640" y="683" type="line"/>
      <point x="505" y="683" type="line"/>
      <point x="338" y="450" type="line"/>
      <point x="172" y="683" type="line"/>
      <point x="37" y="683" type="line"/>
      <point x="271" y="355" type="line"/>
      <point x="18" y="0" type="line"/>
      <point x="153" y="0" type="line"/>
      <point x="338" y="260" type="line"/>
      <point x="524" y="0" type="line"/>
      <point x="659" y="0" type="line"/>
      <point x="406" y="355" type="line"/>
    </contour>
  </outline>
</glyph>
<glyph name="Y" format="2">
  <advance width="667"/>
  <unicode hex="0059"/>
  <outline>
    <contour>
      <point x="521" y="683" type="line"/>
      <point x="334" y="369" type="line"/>
      <point x="146" y="683" type="line"/>
      <point x="18" y="683" type="line"/>
      <point x="279" y="246" type="line"/>
      <point x="279" y="0" type="line"/>
      <point x="389" y="0" type="line"/>
      <point x="389" y="246" type="line"/>
      <point x="650" y="683" type="line"/>
    </contour>
  </outline>
</glyph>
<glyph name="Z" format="2">
  <advance width="596"/>
  <unicode hex="005A"/>
  <outline>
    <contour>
      <point x="535" y="549" type="line"/>
      <point x="535" y="681" type="line"/>
      <point x="63" y="681" type="line"/>
      <point x="63" y="571" type="line"/>
      <point x="409" y="571" type="line"/>
      <point x="39" y="132" type="line"/>
      <point x="39" y="0" type="line"/>
      <point x="558" y="0" type="line"/>
      <point x="558" y="110" type="line"/>
      <point x="164" y="110" type="line"/>
    </contour>
  </outline>
</glyph>
<glyph name="bracketleft" format="2">
  <advance width="283"/>
  <unicode hex="005B"/>
  <outline>
    <contour>
      <point x="59" y="-165" type="line"/>
      <point x="266" y="-165" type="line"/>
      <point x="266" y="-55" type="line"/>
      <point x="170" y="-55" type="line"/>
      <point x="170" y="573" type="line"/>
      <point x="266" y="573" type="line"/>
      <point x="266" y="683" type="line"/>
      <point x="59" y="683" type="line"/>
    </contour>
  </outline>
</glyph>
<glyph name="backslash" format="2">
  <advance width="549"/>
  <unicode hex="005C"/>
  <outline>
    <contour>
      <point x="139" y="683" type="line"/>
      <point x="532" y="-165" type="line"/>
      <point x="411" y="-165" type="line"/>
      <point x="18" y="682" type="line"/>
      <point x="19" y="683" type="line"/>
    </contour>
  </outline>
</glyph>
<glyph name="bracketright" format="2">
  <advance width="283"/>
  <unicode hex="005D"/>
  <outline>
    <contour>
      <point x="224" y="-165" type="line"/>
      <point x="18" y="-165" type="line"/>
      <point x="18" y="-55" type="line"/>
      <point x="114" y="-55" type="line"/>
      <point x="114" y="573" type="line"/>
      <point x="18" y="573" type="line"/>
      <point x="18" y="683" type="line"/>
      <point x="224" y="683" type="line"/>
    </contour>
  </outline>
</glyph>
<glyph name="ltr94" format="2">
  <advance width="474"/>
  <unicode hex="005E"/>
  <outline>
    <contour>
      <point x="347" y="344" type="line"/>
      <point x="237" y="518" type="line"/>
      <point x="127" y="344" type="line"/>
      <point x="21" y="344" type="line"/>
      <point x="184" y="603" type="line"/>
      <point x="290" y="603" type="line"/>
      <point x="453" y="344" type="line"/>
    </contour>
  </outline>
</glyph>
<glyph name="ltr95" format="2">
  <advance width="441"/>
  <unicode hex="005F"/>
  <outline>
    <contour>
      <point x="420" y="0" type="line"/>
      <point x="21" y="0" type="line"/>
      <point x="21" y="90" type="line"/>
      <point x="420" y="90" type="line"/>
    </contour>
  </outline>
</glyph>
<glyph name="grave" format="2">
  <advance width="205"/>
  <unicode hex="0060"/>
  <outline>
    <contour>
      <point x="143" y="441" type="line"/>
      <point x="169" y="499"/>
      <point x="188" y="571"/>
      <point x="188" y="634" type="curve"/>
      <point x="78" y="634" type="line"/>
      <point x="78" y="578"/>
      <point x="52" y="488"/>
      <point x="18" y="441" type="curve"/>
    </contour>
  </outline>
</glyph>
<glyph name="a" format="2">
  <advance width="596"/>
  <unicode hex="0061"/>
  <outline>
    <contour>
      <point x="427" y="518" type="line"/>
      <point x="427" y="477" type="line"/>
      <point x="386" y="507"/>
      <point x="335" y="523"/>
      <point x="283" y="523" type="curve" smooth="yes"/>
      <point x="141" y="523"/>
      <point x="31" y="400"/>
      <point x="31" y="258" type="curve" smooth="yes"/>
      <point x="31" y="117"/>
      <point x="140" y="-5"/>
      <point x="285" y="-5" type="curve" smooth="yes"/>
      <point x="336" y="-5"/>
      <point x="385" y="11"/>
      <point x="427" y="40" type="curve"/>
      <point x="427" y="0" type="line"/>
      <point x="537" y="0" type="line"/>
      <point x="537" y="518" type="line"/>
    </contour>
    <contour>
      <point x="285" y="105" type="curve" smooth="yes"/>
      <point x="205" y="105"/>
      <point x="142" y="172"/>
      <point x="142" y="258" type="curve" smooth="yes"/>
      <point x="142" y="343"/>
      <point x="206" y="413"/>
      <point x="285" y="413" type="curve" smooth="yes"/>
      <point x="363" y="413"/>
      <point x="427" y="343"/>
      <point x="427" y="258" type="curve" smooth="yes"/>
      <point x="427" y="172"/>
      <point x="364" y="105"/>
    </contour>
  </outline>
</glyph>
<glyph name="b" format="2">
  <advance width="596"/>
  <unicode hex="0062"/>
  <outline>
    <contour>
      <point x="314" y="523" type="curve" smooth="yes"/>
      <point x="262" y="523"/>
      <point x="211" y="507"/>
      <point x="170" y="477" type="curve"/>
      <point x="170" y="683" type="line"/>
      <point x="59" y="683" type="line"/>
      <point x="59" y="0" type="line"/>
      <point x="170" y="0" type="line"/>
      <point x="170" y="40" type="line"/>
      <point x="212" y="11"/>
      <point x="261" y="-5"/>
      <point x="313" y="-5" type="curve" smooth="yes"/>
      <point x="457" y="-5"/>
      <point x="565" y="117"/>
      <point x="565" y="258" type="curve" smooth="yes"/>
      <point x="565" y="400"/>
      <point x="456" y="523"/>
    </contour>
    <contour>
      <point x="313" y="105" type="curve" smooth="yes"/>
      <point x="233" y="105"/>
      <point x="170" y="172"/>
      <point x="170" y="258" type="curve" smooth="yes"/>
      <point x="170" y="343"/>
      <point x="234" y="413"/>
      <point x="312" y="413" type="curve" smooth="yes"/>
      <point x="391" y="413"/>
      <point x="455" y="343"/>
      <point x="455" y="258" type="curve" smooth="yes"/>
      <point x="455" y="172"/>
      <point x="392" y="105"/>
    </contour>
  </outline>
</glyph>
<glyph name="c" format="2">
  <advance width="569"/>
  <unicode hex="0063"/>
  <outline>
    <contour>
      <point x="414" y="172" type="line"/>
      <point x="384" y="115"/>
      <point x="326" y="105"/>
      <point x="293" y="105" type="curve" smooth="yes"/>
      <point x="207" y="105"/>
      <point x="142" y="172"/>
      <point x="142" y="258" type="curve" smooth="yes"/>
      <point x="142" y="343"/>
      <point x="208" y="413"/>
      <point x="293" y="413" type="curve" smooth="yes"/>
      <point x="325" y="413"/>
      <point x="383" y="404"/>
      <point x="413" y="346" type="curve"/>
      <point x="531" y="346" type="line"/>
      <point x="500" y="456"/>
      <point x="406" y="523"/>
      <point x="294" y="523" type="curve" smooth="yes"/>
      <point x="145" y="523"/>
      <point x="31" y="403"/>
      <point x="31" y="258" type="curve" smooth="yes"/>
      <point x="31" y="110"/>
      <point x="146" y="-5"/>
      <point x="296" y="-5" type="curve" smooth="yes"/>
      <point x="410" y="-5"/>
      <point x="501" y="62"/>
      <point x="531" y="172" type="curve"/>
    </contour>
  </outline>
</glyph>
<glyph name="d" format="2">
  <advance width="597"/>
  <unicode hex="0064"/>
  <outline>
    <contour>
      <point x="538" y="259" type="curve" smooth="yes"/>
      <point x="538" y="261"/>
      <point x="538" y="263"/>
      <point x="538" y="266" type="curve" smooth="yes"/>
      <point x="538" y="268"/>
      <point x="538" y="271"/>
      <point x="538" y="274" type="curve" smooth="yes"/>
      <point x="538" y="683" type="line"/>
      <point x="428" y="683" type="line"/>
      <point x="428" y="477" type="line"/>
      <point x="386" y="507"/>
      <point x="336" y="523"/>
      <point x="284" y="523" type="curve" smooth="yes"/>
      <point x="142" y="523"/>
      <point x="31" y="400"/>
      <point x="31" y="258" type="curve" smooth="yes"/>
      <point x="31" y="116"/>
      <point x="141" y="-5"/>
      <point x="285" y="-5" type="curve" smooth="yes"/>
      <point x="337" y="-5"/>
      <point x="386" y="11"/>
      <point x="428" y="40" type="curve"/>
      <point x="428" y="0" type="line"/>
      <point x="538" y="0" type="line"/>
      <point x="538" y="241" type="line" smooth="yes"/>
      <point x="538" y="244"/>
      <point x="538" y="246"/>
      <point x="538" y="249" type="curve" smooth="yes"/>
      <point x="538" y="252"/>
      <point x="538" y="256"/>
    </contour>
    <contour>
      <point x="285" y="105" type="curve" smooth="yes"/>
      <point x="205" y="105"/>
      <point x="142" y="172"/>
      <point x="142" y="258" type="curve" smooth="yes"/>
      <point x="142" y="343"/>
      <point x="206" y="413"/>
      <point x="285" y="413" type="curve" smooth="yes"/>
      <point x="360" y="413"/>
      <point x="421" y="350"/>
      <point x="427" y="271" type="curve"/>
      <point x="427" y="245" type="line"/>
      <point x="421" y="165"/>
      <point x="361" y="105"/>
    </contour>
  </outline>
</glyph>
<glyph name="e" format="2">
  <advance width="576"/>
  <unicode hex="0065"/>
  <outline>
    <contour>
      <point x="286" y="523" type="curve" smooth="yes"/>
      <point x="140" y="523"/>
      <point x="31" y="399"/>
      <point x="31" y="256" type="curve" smooth="yes"/>
      <point x="31" y="111"/>
      <point x="143" y="-5"/>
      <point x="293" y="-5" type="curve" smooth="yes"/>
      <point x="395" y="-5"/>
      <point x="483" y="49"/>
      <point x="520" y="143" type="curve"/>
      <point x="392" y="143" type="line"/>
      <point x="361" y="111"/>
      <point x="317" y="105"/>
      <point x="291" y="105" type="curve" smooth="yes"/>
      <point x="223" y="105"/>
      <point x="170" y="147"/>
      <point x="150" y="207" type="curve"/>
      <point x="538" y="207" type="line"/>
      <point x="538" y="263" type="line" smooth="yes"/>
      <point x="538" y="404"/>
      <point x="429" y="523"/>
    </contour>
    <contour>
      <point x="153" y="317" type="line"/>
      <point x="174" y="373"/>
      <point x="225" y="413"/>
      <point x="287" y="413" type="curve" smooth="yes"/>
      <point x="347" y="413"/>
      <point x="397" y="375"/>
      <point x="417" y="317" type="curve"/>
    </contour>
  </outline>
</glyph>
<glyph name="f" format="2">
  <advance width="321"/>
  <unicode hex="0066"/>
  <outline>
    <contour>
      <point x="250" y="598" type="curve" smooth="yes"/>
      <point x="283" y="598" type="line"/>
      <point x="283" y="708" type="line"/>
      <point x="250" y="708" type="line" smooth="yes"/>
      <point x="167" y="708"/>
      <point x="99" y="640"/>
      <point x="99" y="557" type="curve" smooth="yes"/>
      <point x="99" y="517" type="line"/>
      <point x="39" y="517" type="line"/>
      <point x="39" y="407" type="line"/>
      <point x="99" y="407" type="line"/>
      <point x="99" y="0" type="line"/>
      <point x="209" y="0" type="line"/>
      <point x="209" y="407" type="line"/>
      <point x="269" y="407" type="line"/>
      <point x="269" y="517" type="line"/>
      <point x="209" y="517" type="line"/>
      <point x="209" y="557" type="line" smooth="yes"/>
      <point x="209" y="580"/>
      <point x="227" y="598"/>
    </contour>
  </outline>
  <guideline angle="0" x="0" y="517"/>
</glyph>
<glyph name="g" format="2">
  <advance width="596"/>
  <unicode hex="0067"/>
  <outline>
    <contour>
      <point x="434" y="517" type="line"/>
      <point x="434" y="477" type="line"/>
      <point x="392" y="506"/>
      <point x="343" y="522"/>
      <point x="292" y="522" type="curve" smooth="yes"/>
      <point x="147" y="522"/>
      <point x="39" y="400"/>
      <point x="39" y="259" type="curve" smooth="yes"/>
      <point x="39" y="118"/>
      <point x="147" y="-6"/>
      <point x="290" y="-6" type="curve" smooth="yes"/>
      <point x="342" y="-6"/>
      <point x="392" y="10"/>
      <point x="433" y="40" type="curve"/>
      <point x="428" y="-46"/>
      <point x="379" y="-91"/>
      <point x="292" y="-91" type="curve" smooth="yes"/>
      <point x="257" y="-91"/>
      <point x="210" y="-76"/>
      <point x="192" y="-62" type="curve"/>
      <point x="126" y="-150" type="line"/>
      <point x="166" y="-180"/>
      <point x="235" y="-201"/>
      <point x="302" y="-201" type="curve" smooth="yes"/>
      <point x="451" y="-201"/>
      <point x="544" y="-91"/>
      <point x="544" y="56" type="curve" smooth="yes"/>
      <point x="544" y="517" type="line"/>
    </contour>
    <contour>
      <point x="292" y="104" type="curve" smooth="yes"/>
      <point x="213" y="104"/>
      <point x="149" y="174"/>
      <point x="149" y="259" type="curve" smooth="yes"/>
      <point x="149" y="345"/>
      <point x="212" y="412"/>
      <point x="292" y="412" type="curve" smooth="yes"/>
      <point x="375" y="412"/>
      <point x="434" y="340"/>
      <point x="434" y="259" type="curve"/>
      <point x="434" y="174"/>
      <point x="370" y="104"/>
    </contour>
  </outline>
  <guideline angle="0" x="0" y="540"/>
</glyph>
<glyph name="h" format="2">
  <advance width="583"/>
  <unicode hex="0068"/>
  <outline>
    <contour>
      <point x="312" y="523" type="curve" smooth="yes"/>
      <point x="263" y="523"/>
      <point x="212" y="508"/>
      <point x="170" y="480" type="curve"/>
      <point x="170" y="683" type="line"/>
      <point x="59" y="683" type="line"/>
      <point x="59" y="0" type="line"/>
      <point x="170" y="0" type="line"/>
      <point x="170" y="228" type="line" smooth="yes"/>
      <point x="170" y="321"/>
      <point x="205" y="413"/>
      <point x="305" y="413" type="curve" smooth="yes"/>
      <point x="370" y="413"/>
      <point x="421" y="375"/>
      <point x="421" y="314" type="curve" smooth="yes"/>
      <point x="421" y="0" type="line"/>
      <point x="531" y="0" type="line"/>
      <point x="531" y="314" type="line" smooth="yes"/>
      <point x="531" y="435"/>
      <point x="432" y="523"/>
    </contour>
  </outline>
</glyph>
<glyph name="i" format="2">
  <advance width="229"/>
  <unicode hex="0069"/>
  <outline>
    <contour>
      <point x="59" y="0" type="line"/>
      <point x="170" y="0" type="line"/>
      <point x="170" y="518" type="line"/>
      <point x="59" y="518" type="line"/>
    </contour>
    <contour>
      <point x="59" y="683" type="line"/>
      <point x="59" y="584" type="line"/>
      <point x="170" y="584" type="line"/>
      <point x="170" y="683" type="line"/>
    </contour>
  </outline>
</glyph>
<glyph name="j" format="2">
  <advance width="267"/>
  <unicode hex="006A"/>
  <outline>
    <contour>
      <point x="98" y="-40" type="line" smooth="yes"/>
      <point x="98" y="-61"/>
      <point x="80" y="-79"/>
      <point x="59" y="-79" type="curve" smooth="yes"/>
      <point x="39" y="-79" type="line"/>
      <point x="39" y="-189" type="line"/>
      <point x="59" y="-189" type="line" smooth="yes"/>
      <point x="141" y="-189"/>
      <point x="208" y="-122"/>
      <point x="208" y="-40" type="curve" smooth="yes"/>
      <point x="208" y="519" type="line"/>
      <point x="98" y="519" type="line"/>
    </contour>
    <contour>
      <point x="98" y="684" type="line"/>
      <point x="98" y="585" type="line"/>
      <point x="208" y="585" type="line"/>
      <point x="208" y="684" type="line"/>
    </contour>
  </outline>
</glyph>
<glyph name="k" format="2">
  <advance width="577"/>
  <unicode hex="006B"/>
  <outline>
    <contour>
      <point x="521" y="0" type="line"/>
      <point x="316" y="309" type="line"/>
      <point x="539" y="518" type="line"/>
      <point x="378" y="518" type="line"/>
      <point x="170" y="323" type="line"/>
      <point x="170" y="683" type="line"/>
      <point x="59" y="683" type="line"/>
      <point x="59" y="0" type="line"/>
      <point x="170" y="0" type="line"/>
      <point x="170" y="173" type="line"/>
      <point x="234" y="233" type="line"/>
      <point x="389" y="0" type="line"/>
    </contour>
  </outline>
</glyph>
<glyph name="l" format="2">
  <advance width="229"/>
  <unicode hex="006C"/>
  <outline>
    <contour>
      <point x="170" y="0" type="line"/>
      <point x="59" y="0" type="line"/>
      <point x="59" y="683" type="line"/>
      <point x="170" y="683" type="line"/>
    </contour>
  </outline>
</glyph>
<glyph name="m" format="2">
  <advance width="867"/>
  <unicode hex="006D"/>
  <outline>
    <contour>
      <point x="610" y="523" type="curve" smooth="yes"/>
      <point x="545" y="523"/>
      <point x="483" y="493"/>
      <point x="443" y="445" type="curve"/>
      <point x="406" y="494"/>
      <point x="348" y="523"/>
      <point x="287" y="523" type="curve" smooth="yes"/>
      <point x="244" y="523"/>
      <point x="200" y="509"/>
      <point x="163" y="484" type="curve"/>
      <point x="163" y="518" type="line"/>
      <point x="53" y="518" type="line"/>
      <point x="53" y="0" type="line"/>
      <point x="163" y="0" type="line"/>
      <point x="163" y="221" type="line"/>
      <point x="163" y="301"/>
      <point x="187" y="413"/>
      <point x="281" y="413" type="curve" smooth="yes"/>
      <point x="344" y="413"/>
      <point x="376" y="363"/>
      <point x="376" y="309" type="curve" smooth="yes"/>
      <point x="376" y="0" type="line"/>
      <point x="486" y="0" type="line"/>
      <point x="486" y="221" type="line"/>
      <point x="486" y="301"/>
      <point x="509" y="413"/>
      <point x="604" y="413" type="curve" smooth="yes"/>
      <point x="667" y="413"/>
      <point x="698" y="363"/>
      <point x="698" y="309" type="curve" smooth="yes"/>
      <point x="698" y="0" type="line"/>
      <point x="808" y="0" type="line"/>
      <point x="808" y="309" type="line" smooth="yes"/>
      <point x="808" y="425"/>
      <point x="728" y="523"/>
    </contour>
  </outline>
</glyph>
<glyph name="n" format="2">
  <advance width="590"/>
  <unicode hex="006E"/>
  <outline>
    <contour>
      <point x="312" y="523" type="curve" smooth="yes"/>
      <point x="263" y="523"/>
      <point x="212" y="508"/>
      <point x="170" y="480" type="curve"/>
      <point x="170" y="518" type="line"/>
      <point x="59" y="518" type="line"/>
      <point x="59" y="0" type="line"/>
      <point x="170" y="0" type="line"/>
      <point x="170" y="228" type="line" smooth="yes"/>
      <point x="170" y="321"/>
      <point x="205" y="413"/>
      <point x="305" y="413" type="curve" smooth="yes"/>
      <point x="370" y="413"/>
      <point x="421" y="375"/>
      <point x="421" y="314" type="curve" smooth="yes"/>
      <point x="421" y="0" type="line"/>
      <point x="531" y="0" type="line"/>
      <point x="531" y="314" type="line" smooth="yes"/>
      <point x="531" y="435"/>
      <point x="431" y="523"/>
    </contour>
  </outline>
</glyph>
<glyph name="o" format="2">
  <advance width="568"/>
  <unicode hex="006F"/>
  <outline>
    <contour>
      <point x="285" y="-5" type="curve" smooth="yes"/>
      <point x="140" y="-5"/>
      <point x="31" y="117"/>
      <point x="31" y="258" type="curve" smooth="yes"/>
      <point x="31" y="400"/>
      <point x="140" y="523"/>
      <point x="284" y="523" type="curve" smooth="yes"/>
      <point x="428" y="523"/>
      <point x="537" y="400"/>
      <point x="537" y="258" type="curve" smooth="yes"/>
      <point x="537" y="117"/>
      <point x="429" y="-5"/>
    </contour>
    <contour>
      <point x="285" y="413" type="curve" smooth="yes"/>
      <point x="206" y="413"/>
      <point x="142" y="343"/>
      <point x="142" y="258" type="curve" smooth="yes"/>
      <point x="142" y="172"/>
      <point x="205" y="105"/>
      <point x="285" y="105" type="curve" smooth="yes"/>
      <point x="364" y="105"/>
      <point x="427" y="172"/>
      <point x="427" y="258" type="curve" smooth="yes"/>
      <point x="427" y="343"/>
      <point x="363" y="413"/>
    </contour>
  </outline>
</glyph>
<glyph name="p" format="2">
  <advance width="596"/>
  <unicode hex="0070"/>
  <outline>
    <contour>
      <point x="313" y="522" type="curve" smooth="yes"/>
      <point x="261" y="522"/>
      <point x="212" y="506"/>
      <point x="170" y="477" type="curve"/>
      <point x="170" y="517" type="line"/>
      <point x="59" y="517" type="line"/>
      <point x="59" y="-166" type="line"/>
      <point x="170" y="-166" type="line"/>
      <point x="170" y="40" type="line"/>
      <point x="211" y="10"/>
      <point x="262" y="-6"/>
      <point x="314" y="-6" type="curve" smooth="yes"/>
      <point x="456" y="-6"/>
      <point x="565" y="117"/>
      <point x="565" y="259" type="curve" smooth="yes"/>
      <point x="565" y="400"/>
      <point x="457" y="522"/>
    </contour>
    <contour>
      <point x="313" y="104" type="curve" smooth="yes"/>
      <point x="234" y="104"/>
      <point x="170" y="174"/>
      <point x="170" y="259" type="curve" smooth="yes"/>
      <point x="170" y="345"/>
      <point x="233" y="412"/>
      <point x="313" y="412" type="curve" smooth="yes"/>
      <point x="392" y="412"/>
      <point x="455" y="345"/>
      <point x="455" y="259" type="curve" smooth="yes"/>
      <point x="455" y="174"/>
      <point x="391" y="104"/>
    </contour>
  </outline>
</glyph>
<glyph name="q" format="2">
  <advance width="596"/>
  <unicode hex="0071"/>
  <outline>
    <contour>
      <point x="31" y="260" type="curve" smooth="yes"/>
      <point x="31" y="120"/>
      <point x="140" y="-5"/>
      <point x="283" y="-5" type="curve" smooth="yes"/>
      <point x="335" y="-5"/>
      <point x="386" y="11"/>
      <point x="427" y="41" type="curve"/>
      <point x="427" y="-165" type="line"/>
      <point x="537" y="-165" type="line"/>
      <point x="537" y="518" type="line"/>
      <point x="427" y="518" type="line"/>
      <point x="427" y="478" type="line"/>
      <point x="385" y="507"/>
      <point x="336" y="523"/>
      <point x="285" y="523" type="curve" smooth="yes"/>
      <point x="140" y="523"/>
      <point x="31" y="401"/>
    </contour>
    <contour>
      <point x="142" y="260" type="curve" smooth="yes"/>
      <point x="142" y="346"/>
      <point x="205" y="413"/>
      <point x="284" y="413" type="curve" smooth="yes"/>
      <point x="364" y="413"/>
      <point x="427" y="346"/>
      <point x="427" y="260" type="curve" smooth="yes"/>
      <point x="427" y="175"/>
      <point x="363" y="105"/>
      <point x="284" y="105" type="curve" smooth="yes"/>
      <point x="206" y="105"/>
      <point x="142" y="175"/>
    </contour>
  </outline>
</glyph>
<glyph name="r" format="2">
  <advance width="361"/>
  <unicode hex="0072"/>
  <outline>
    <contour>
      <point x="170" y="478" type="curve"/>
      <point x="170" y="518" type="line"/>
      <point x="59" y="518" type="line"/>
      <point x="59" y="0" type="line"/>
      <point x="170" y="0" type="line"/>
      <point x="170" y="224" type="line" smooth="yes"/>
      <point x="170" y="327"/>
      <point x="208" y="413"/>
      <point x="323" y="413" type="curve"/>
      <point x="323" y="523" type="line"/>
      <point x="269" y="523"/>
      <point x="214" y="509"/>
    </contour>
  </outline>
  <guideline angle="0" x="0" y="518"/>
</glyph>
<glyph name="s" format="2">
  <advance width="515"/>
  <unicode hex="0073"/>
  <outline>
    <contour>
      <point x="268" y="-5" type="curve" smooth="yes"/>
      <point x="157" y="-5"/>
      <point x="39" y="57"/>
      <point x="39" y="178" type="curve" smooth="yes"/>
      <point x="39" y="184"/>
      <point x="39" y="190"/>
      <point x="40" y="196" type="curve"/>
      <point x="149" y="185" type="line"/>
      <point x="149" y="183"/>
      <point x="149" y="180"/>
      <point x="149" y="178" type="curve" smooth="yes"/>
      <point x="149" y="123"/>
      <point x="223" y="105"/>
      <point x="269" y="105" type="curve" smooth="yes"/>
      <point x="304" y="105"/>
      <point x="367" y="115"/>
      <point x="367" y="162" type="curve" smooth="yes"/>
      <point x="367" y="170"/>
      <point x="367" y="178"/>
      <point x="347" y="189" type="curve" smooth="yes"/>
      <point x="324" y="201"/>
      <point x="288" y="209"/>
      <point x="253" y="217" type="curve" smooth="yes"/>
      <point x="165" y="237"/>
      <point x="56" y="265"/>
      <point x="56" y="373" type="curve" smooth="yes"/>
      <point x="56" y="480"/>
      <point x="164" y="523"/>
      <point x="257" y="523" type="curve" smooth="yes"/>
      <point x="364" y="523"/>
      <point x="463" y="466"/>
      <point x="463" y="342" type="curve"/>
      <point x="353" y="342" type="line"/>
      <point x="353" y="400"/>
      <point x="302" y="413"/>
      <point x="256" y="413" type="curve" smooth="yes"/>
      <point x="201" y="413"/>
      <point x="166" y="394"/>
      <point x="166" y="377" type="curve" smooth="yes"/>
      <point x="166" y="370"/>
      <point x="166" y="363"/>
      <point x="185" y="353" type="curve" smooth="yes"/>
      <point x="208" y="341"/>
      <point x="243" y="332"/>
      <point x="278" y="325" type="curve" smooth="yes"/>
      <point x="370" y="304"/>
      <point x="477" y="276"/>
      <point x="477" y="162" type="curve" smooth="yes"/>
      <point x="477" y="47"/>
      <point x="369" y="-5"/>
    </contour>
  </outline>
</glyph>
<glyph name="t" format="2">
  <advance width="312"/>
  <unicode hex="0074"/>
  <outline>
    <contour>
      <point x="250" y="105" type="line" smooth="yes"/>
      <point x="226" y="105"/>
      <point x="207" y="124"/>
      <point x="207" y="148" type="curve" smooth="yes"/>
      <point x="207" y="408" type="line"/>
      <point x="269" y="408" type="line"/>
      <point x="269" y="518" type="line"/>
      <point x="207" y="518" type="line"/>
      <point x="207" y="684" type="line"/>
      <point x="97" y="684" type="line"/>
      <point x="97" y="518" type="line"/>
      <point x="39" y="518" type="line"/>
      <point x="39" y="408" type="line"/>
      <point x="97" y="408" type="line"/>
      <point x="97" y="148" type="line" smooth="yes"/>
      <point x="97" y="64"/>
      <point x="166" y="-5"/>
      <point x="250" y="-5" type="curve" smooth="yes"/>
      <point x="274" y="-5" type="line"/>
      <point x="274" y="105" type="line"/>
    </contour>
  </outline>
</glyph>
<glyph name="u" format="2">
  <advance width="569"/>
  <unicode hex="0075"/>
  <outline>
    <contour>
      <point x="400" y="519" type="line"/>
      <point x="400" y="290" type="line" smooth="yes"/>
      <point x="400" y="197"/>
      <point x="365" y="105"/>
      <point x="265" y="105" type="curve" smooth="yes"/>
      <point x="200" y="105"/>
      <point x="149" y="143"/>
      <point x="149" y="204" type="curve" smooth="yes"/>
      <point x="149" y="519" type="line"/>
      <point x="39" y="519" type="line"/>
      <point x="39" y="204" type="line" smooth="yes"/>
      <point x="39" y="82"/>
      <point x="139" y="-5"/>
      <point x="258" y="-5" type="curve" smooth="yes"/>
      <point x="307" y="-5"/>
      <point x="358" y="10"/>
      <point x="400" y="38" type="curve"/>
      <point x="400" y="1" type="line"/>
      <point x="510" y="1" type="line"/>
      <point x="510" y="519" type="line"/>
    </contour>
  </outline>
  <guideline angle="0" x="0" y="1387"/>
  <guideline angle="90" x="-1128" y="0"/>
  <guideline angle="90" x="-1793" y="0"/>
  <guideline angle="90" x="-1843" y="0"/>
  <guideline angle="90" x="-1909" y="0"/>
</glyph>
<glyph name="v" format="2">
  <advance width="539"/>
  <unicode hex="0076"/>
  <outline>
    <contour>
      <point x="405" y="518" type="line"/>
      <point x="270" y="165" type="line"/>
      <point x="136" y="518" type="line"/>
      <point x="18" y="518" type="line"/>
      <point x="215" y="0" type="line"/>
      <point x="325" y="0" type="line"/>
      <point x="522" y="518" type="line"/>
    </contour>
  </outline>
</glyph>
<glyph name="w" format="2">
  <advance width="805"/>
  <unicode hex="0077"/>
  <outline>
    <contour>
      <point x="672" y="518" type="line"/>
      <point x="566" y="190" type="line"/>
      <point x="461" y="518" type="line"/>
      <point x="345" y="518" type="line"/>
      <point x="239" y="190" type="line"/>
      <point x="134" y="518" type="line"/>
      <point x="18" y="518" type="line"/>
      <point x="185" y="0" type="line"/>
      <point x="294" y="0" type="line"/>
      <point x="403" y="339" type="line"/>
      <point x="512" y="0" type="line"/>
      <point x="621" y="0" type="line"/>
      <point x="788" y="518" type="line"/>
    </contour>
  </outline>
  <guideline angle="0" x="0" y="519"/>
</glyph>
<glyph name="x" format="2">
  <advance width="578"/>
  <unicode hex="0078"/>
  <outline>
    <contour>
      <point x="546" y="518" type="line"/>
      <point x="408" y="518" type="line"/>
      <point x="290" y="361" type="line"/>
      <point x="171" y="518" type="line"/>
      <point x="33" y="518" type="line"/>
      <point x="221" y="269" type="line"/>
      <point x="18" y="0" type="line"/>
      <point x="156" y="0" type="line"/>
      <point x="290" y="178" type="line"/>
      <point x="424" y="0" type="line"/>
      <point x="561" y="0" type="line"/>
      <point x="359" y="269" type="line"/>
    </contour>
  </outline>
</glyph>
<glyph name="y" format="2">
  <advance width="531"/>
  <unicode hex="0079"/>
  <outline>
    <contour>
      <point x="397" y="518" type="line"/>
      <point x="266" y="175" type="line"/>
      <point x="136" y="518" type="line"/>
      <point x="18" y="518" type="line"/>
      <point x="207" y="21" type="line"/>
      <point x="187" y="-31" type="line" smooth="yes"/>
      <point x="182" y="-45"/>
      <point x="168" y="-55"/>
      <point x="153" y="-55" type="curve" smooth="yes"/>
      <point x="106" y="-55" type="line"/>
      <point x="106" y="-165" type="line"/>
      <point x="153" y="-165" type="line" smooth="yes"/>
      <point x="214" y="-165"/>
      <point x="269" y="-127"/>
      <point x="290" y="-70" type="curve" smooth="yes"/>
      <point x="514" y="518" type="line"/>
    </contour>
  </outline>
</glyph>
<glyph name="z" format="2">
  <advance width="494"/>
  <unicode hex="007A"/>
  <outline>
    <contour>
      <point x="456" y="110" type="line"/>
      <point x="184" y="110" type="line"/>
      <point x="453" y="403" type="line"/>
      <point x="453" y="518" type="line"/>
      <point x="73" y="518" type="line"/>
      <point x="73" y="408" type="line"/>
      <point x="308" y="408" type="line"/>
      <point x="39" y="114" type="line"/>
      <point x="39" y="0" type="line"/>
      <point x="456" y="0" type="line"/>
    </contour>
  </outline>
</glyph>
<glyph name="braceleft" format="2">
  <advance width="271"/>
  <unicode hex="007B"/>
  <outline>
    <contour>
      <point x="254" y="573" type="curve"/>
      <point x="254" y="683" type="line"/>
      <point x="165" y="683"/>
      <point x="92" y="615"/>
      <point x="92" y="525" type="curve"/>
      <point x="92" y="431" type="line"/>
      <point x="92" y="417" type="line" smooth="yes"/>
      <point x="92" y="388"/>
      <point x="92" y="343"/>
      <point x="75" y="326" type="curve" smooth="yes"/>
      <point x="67" y="318"/>
      <point x="53" y="314"/>
      <point x="31" y="314" type="curve"/>
      <point x="31" y="204" type="line"/>
      <point x="53" y="204"/>
      <point x="67" y="200"/>
      <point x="75" y="192" type="curve" smooth="yes"/>
      <point x="92" y="175"/>
      <point x="92" y="130"/>
      <point x="92" y="97" type="curve" smooth="yes"/>
      <point x="92" y="87" type="line"/>
      <point x="92" y="-7" type="line"/>
      <point x="92" y="-97"/>
      <point x="165" y="-165"/>
      <point x="254" y="-165" type="curve"/>
      <point x="254" y="-55" type="line"/>
      <point x="226" y="-55"/>
      <point x="202" y="-36"/>
      <point x="202" y="-7" type="curve"/>
      <point x="202" y="87" type="line"/>
      <point x="202" y="97" type="line" smooth="yes"/>
      <point x="202" y="153"/>
      <point x="199" y="213"/>
      <point x="162" y="259" type="curve"/>
      <point x="200" y="305"/>
      <point x="202" y="366"/>
      <point x="202" y="423" type="curve" smooth="yes"/>
      <point x="202" y="431" type="line"/>
      <point x="202" y="525" type="line"/>
      <point x="202" y="554"/>
      <point x="226" y="573"/>
    </contour>
  </outline>
</glyph>
<glyph name="bar" format="2">
  <advance width="229"/>
  <unicode hex="007C"/>
  <outline>
    <contour>
      <point x="170" y="-164" type="line"/>
      <point x="59" y="-164" type="line"/>
      <point x="59" y="684" type="line"/>
      <point x="170" y="684" type="line"/>
    </contour>
  </outline>
</glyph>
<glyph name="braceright" format="2">
  <advance width="271"/>
  <unicode hex="007D"/>
  <outline>
    <contour>
      <point x="197" y="326" type="curve" smooth="yes"/>
      <point x="180" y="343"/>
      <point x="180" y="388"/>
      <point x="180" y="421" type="curve" smooth="yes"/>
      <point x="180" y="423" type="line" smooth="yes"/>
      <point x="180" y="431" type="line" smooth="yes"/>
      <point x="180" y="525" type="line" smooth="yes"/>
      <point x="180" y="615"/>
      <point x="106" y="683"/>
      <point x="18" y="683" type="curve"/>
      <point x="18" y="573" type="line"/>
      <point x="46" y="573"/>
      <point x="70" y="554"/>
      <point x="70" y="525" type="curve" smooth="yes"/>
      <point x="70" y="431" type="line" smooth="yes"/>
      <point x="70" y="421" type="line" smooth="yes"/>
      <point x="70" y="365"/>
      <point x="72" y="305"/>
      <point x="109" y="259" type="curve"/>
      <point x="72" y="213"/>
      <point x="70" y="152"/>
      <point x="70" y="95" type="curve" smooth="yes"/>
      <point x="70" y="87" type="line" smooth="yes"/>
      <point x="70" y="-7" type="line" smooth="yes"/>
      <point x="70" y="-36"/>
      <point x="46" y="-55"/>
      <point x="18" y="-55" type="curve"/>
      <point x="18" y="-165" type="line"/>
      <point x="106" y="-165"/>
      <point x="180" y="-97"/>
      <point x="180" y="-7" type="curve" smooth="yes"/>
      <point x="180" y="87" type="line" smooth="yes"/>
      <point x="180" y="101" type="line" smooth="yes"/>
      <point x="180" y="130"/>
      <point x="180" y="175"/>
      <point x="197" y="192" type="curve" smooth="yes"/>
      <point x="205" y="200"/>
      <point x="219" y="204"/>
      <point x="240" y="204" type="curve"/>
      <point x="240" y="314" type="line"/>
      <point x="219" y="314"/>
      <point x="205" y="318"/>
    </contour>
  </outline>
</glyph>
<glyph name="asciitilde" format="2">
  <advance width="353"/>
  <unicode hex="007E"/>
  <outline>
    <contour>
      <point x="332" y="198" type="line"/>
      <point x="308" y="191"/>
      <point x="286" y="187"/>
      <point x="267" y="187" type="curve" smooth="yes"/>
      <point x="229" y="187"/>
      <point x="192" y="202"/>
      <point x="156" y="217" type="curve" smooth="yes"/>
      <point x="131" y="227"/>
      <point x="103" y="239"/>
      <point x="85" y="239" type="curve" smooth="yes"/>
      <point x="70" y="239"/>
      <point x="44" y="230"/>
      <point x="21" y="219" type="curve"/>
      <point x="21" y="337" type="line"/>
      <point x="45" y="345"/>
      <point x="67" y="349"/>
      <point x="87" y="349" type="curve"/>
      <point x="125" y="349"/>
      <point x="162" y="334"/>
      <point x="198" y="319" type="curve" smooth="yes"/>
      <point x="222" y="309"/>
      <point x="251" y="297"/>
      <point x="268" y="297" type="curve" smooth="yes"/>
      <point x="283" y="297"/>
      <point x="309" y="306"/>
      <point x="332" y="316" type="curve"/>
    </contour>
  </outline>
</glyph>
<glyph name="dieresis" format="2">
  <advance width="310"/>
  <unicode hex="00A8"/>
  <outline>
    <contour>
      <point x="127.5" y="623.427" type="line"/>
      <point x="17.5" y="623.427" type="line"/>
      <point x="17.5" y="752" type="line"/>
      <point x="127.5" y="752" type="line"/>
    </contour>
    <contour>
      <point x="292.5" y="623.427" type="line"/>
      <point x="182.5" y="623.427" type="line"/>
      <point x="182.5" y="752" type="line"/>
      <point x="292.5" y="752" type="line"/>
    </contour>
  </outline>
</glyph>
<glyph name="copyright" format="2">
  <advance width="423"/>
  <unicode hex="00A9"/>
  <outline>
    <contour>
      <point x="211.428" y="300.989" type="curve" smooth="yes"/>
      <point x="228.188" y="300.989"/>
      <point x="243.643" y="291.184"/>
      <point x="250.801" y="276.011" type="curve"/>
      <point x="305.066" y="301.608" type="line"/>
      <point x="288.05" y="337.681"/>
      <point x="251.295" y="360.989"/>
      <point x="211.428" y="360.989" type="curve" smooth="yes"/>
      <point x="154.361" y="360.989"/>
      <point x="107.934" y="314.561"/>
      <point x="107.934" y="257.495" type="curve" smooth="yes"/>
      <point x="107.934" y="200.428"/>
      <point x="154.361" y="154"/>
      <point x="211.428" y="154" type="curve" smooth="yes"/>
      <point x="250.578" y="154"/>
      <point x="287.197" y="176.863"/>
      <point x="304.413" y="212.019" type="curve"/>
      <point x="250.526" y="238.406" type="line"/>
      <point x="243.155" y="223.352"/>
      <point x="228.173" y="214"/>
      <point x="211.428" y="214" type="curve" smooth="yes"/>
      <point x="187.445" y="214"/>
      <point x="167.934" y="233.512"/>
      <point x="167.934" y="257.495" type="curve" smooth="yes"/>
      <point x="167.934" y="281.478"/>
      <point x="187.445" y="300.989"/>
    </contour>
    <contour>
      <point x="212" y="437" type="curve" smooth="yes"/>
      <point x="113" y="437"/>
      <point x="31" y="356"/>
      <point x="31" y="257" type="curve" smooth="yes"/>
      <point x="31" y="158"/>
      <point x="113" y="77"/>
      <point x="212" y="77" type="curve" smooth="yes"/>
      <point x="311" y="77"/>
      <point x="392" y="158"/>
      <point x="392" y="257" type="curve" smooth="yes"/>
      <point x="392" y="356"/>
      <point x="311" y="437"/>
    </contour>
    <contour>
      <point x="212" y="137" type="curve" smooth="yes"/>
      <point x="146" y="137"/>
      <point x="92" y="191"/>
      <point x="92" y="257" type="curve" smooth="yes"/>
      <point x="92" y="323"/>
      <point x="146" y="377"/>
      <point x="212" y="377" type="curve" smooth="yes"/>
      <point x="278" y="377"/>
      <point x="332" y="323"/>
      <point x="332" y="257" type="curve" smooth="yes"/>
      <point x="332" y="191"/>
      <point x="278" y="137"/>
    </contour>
  </outline>
</glyph>
<glyph name="macron" format="2">
  <advance width="395"/>
  <unicode hex="00AF"/>
  <outline>
    <contour>
      <point x="378" y="473" type="line"/>
      <point x="18" y="473" type="line"/>
      <point x="18" y="583" type="line"/>
      <point x="378" y="583" type="line"/>
    </contour>
  </outline>
</glyph>
<glyph name="alef" format="2">
  <advance width="617"/>
  <unicode hex="05D0"/>
  <outline>
    <contour>
      <point x="48" y="0" type="curve"/>
      <point x="158" y="0" type="line"/>
      <point x="158" y="160"/>
      <point x="187" y="241"/>
      <point x="218" y="285" type="curve"/>
      <point x="446" y="0" type="line"/>
      <point x="586" y="0" type="line"/>
      <point x="458" y="160" type="line"/>
      <point x="537" y="259"/>
      <point x="546" y="397"/>
      <point x="546" y="518" type="curve"/>
      <point x="436" y="518" type="line"/>
      <point x="436" y="423"/>
      <point x="430" y="321"/>
      <point x="387" y="250" type="curve"/>
      <point x="173" y="518" type="line"/>
      <point x="31" y="518" type="line"/>
      <point x="147" y="374" type="line"/>
      <point x="59" y="272"/>
      <point x="48" y="128"/>
    </contour>
  </outline>
</glyph>
<glyph name="bet" format="2">
  <advance width="489"/>
  <unicode hex="05D1"/>
  <outline>
    <contour>
      <point x="404" y="110" type="line"/>
      <point x="404" y="293" type="line" smooth="yes"/>
      <point x="404" y="417"/>
      <point x="303" y="518"/>
      <point x="179" y="518" type="curve" smooth="yes"/>
      <point x="31" y="518" type="line"/>
      <point x="31" y="408" type="line"/>
      <point x="179" y="408" type="line" smooth="yes"/>
      <point x="243" y="408"/>
      <point x="294" y="356"/>
      <point x="294" y="293" type="curve" smooth="yes"/>
      <point x="294" y="110" type="line"/>
      <point x="31" y="110" type="line"/>
      <point x="31" y="0" type="line"/>
      <point x="458" y="0" type="line"/>
      <point x="458" y="110" type="line"/>
    </contour>
  </outline>
</glyph>
<glyph name="gimel" format="2">
  <advance width="403"/>
  <unicode hex="05D2"/>
  <outline>
    <contour>
      <point x="235" y="86" type="curve"/>
      <point x="253" y="0" type="line"/>
      <point x="365" y="0" type="line"/>
      <point x="257" y="518" type="line"/>
      <point x="72" y="518" type="line"/>
      <point x="72" y="408" type="line"/>
      <point x="167" y="408" type="line"/>
      <point x="200" y="251" type="line"/>
      <point x="196" y="172"/>
      <point x="107" y="110"/>
      <point x="31" y="110" type="curve"/>
      <point x="31" y="0" type="line"/>
      <point x="107" y="0"/>
      <point x="182" y="33"/>
    </contour>
  </outline>
</glyph>
<glyph name="dalet" format="2">
  <advance width="461"/>
  <unicode hex="05D3"/>
  <outline>
    <contour>
      <point x="444" y="518" type="line"/>
      <point x="18" y="518" type="line"/>
      <point x="18" y="408" type="line"/>
      <point x="264" y="408" type="line"/>
      <point x="264" y="0" type="line"/>
      <point x="374" y="0" type="line"/>
      <point x="374" y="408" type="line"/>
      <point x="444" y="408" type="line"/>
    </contour>
  </outline>
</glyph>
<glyph name="he" format="2">
  <advance width="544"/>
  <unicode hex="05D4"/>
  <outline>
    <contour>
      <point x="492" y="0" type="line"/>
      <point x="382" y="0" type="line"/>
      <point x="382" y="293" type="line" smooth="yes"/>
      <point x="382" y="356"/>
      <point x="330" y="408"/>
      <point x="267" y="408" type="curve" smooth="yes"/>
      <point x="40" y="408" type="line"/>
      <point x="40" y="518" type="line"/>
      <point x="267" y="518" type="line" smooth="yes"/>
      <point x="391" y="518"/>
      <point x="492" y="417"/>
      <point x="492" y="293" type="curve" smooth="yes"/>
    </contour>
    <contour>
      <point x="149" y="0" type="line"/>
      <point x="39" y="0" type="line"/>
      <point x="39" y="256" type="line"/>
      <point x="149" y="256" type="line"/>
    </contour>
  </outline>
</glyph>
<glyph name="vav" format="2">
  <advance width="229"/>
  <unicode hex="05D5"/>
  <outline>
    <contour>
      <point x="170" y="0" type="line"/>
      <point x="59" y="0" type="line"/>
      <point x="59" y="518" type="line"/>
      <point x="170" y="518" type="line"/>
    </contour>
  </outline>
</glyph>
<glyph name="zayin" format="2">
  <advance width="375"/>
  <unicode hex="05D6"/>
  <outline>
    <contour>
      <point x="344" y="518" type="line"/>
      <point x="18" y="518" type="line"/>
      <point x="18" y="408" type="line"/>
      <point x="83" y="408"/>
      <point x="159" y="371"/>
      <point x="159" y="267" type="curve" smooth="yes"/>
      <point x="159" y="0" type="line"/>
      <point x="269" y="0" type="line"/>
      <point x="269" y="267" type="line" smooth="yes"/>
      <point x="269" y="317"/>
      <point x="257" y="366"/>
      <point x="230" y="408" type="curve"/>
      <point x="344" y="408" type="line"/>
    </contour>
  </outline>
</glyph>
<glyph name="het" format="2">
  <advance width="605"/>
  <unicode hex="05D7"/>
  <outline>
    <contour>
      <point x="553" y="0" type="line"/>
      <point x="443" y="0" type="line"/>
      <point x="443" y="293" type="line" smooth="yes"/>
      <point x="443" y="356"/>
      <point x="391" y="408"/>
      <point x="328" y="408" type="curve" smooth="yes"/>
      <point x="170" y="408" type="line"/>
      <point x="170" y="0" type="line"/>
      <point x="59" y="0" type="line"/>
      <point x="59" y="518" type="line"/>
      <point x="328" y="518" type="line" smooth="yes"/>
      <point x="452" y="518"/>
      <point x="553" y="417"/>
      <point x="553" y="293" type="curve" smooth="yes"/>
    </contour>
  </outline>
</glyph>
<glyph name="tet" format="2">
  <advance width="580"/>
  <unicode hex="05D8"/>
  <outline>
    <contour>
      <point x="299" y="0" type="curve" smooth="yes"/>
      <point x="160" y="0"/>
      <point x="53" y="123"/>
      <point x="53" y="259" type="curve" smooth="yes"/>
      <point x="53" y="517" type="line"/>
      <point x="163" y="517" type="line"/>
      <point x="163" y="259" type="line" smooth="yes"/>
      <point x="163" y="178"/>
      <point x="225" y="110"/>
      <point x="298" y="110" type="curve" smooth="yes"/>
      <point x="371" y="110"/>
      <point x="432" y="178"/>
      <point x="432" y="259" type="curve" smooth="yes"/>
      <point x="432" y="284"/>
      <point x="426" y="408"/>
      <point x="308" y="408" type="curve" smooth="yes"/>
      <point x="287" y="408" type="line"/>
      <point x="287" y="518" type="line"/>
      <point x="308" y="518" type="line" smooth="yes"/>
      <point x="450" y="518"/>
      <point x="542" y="405"/>
      <point x="542" y="269" type="curve" smooth="yes"/>
      <point x="542" y="126"/>
      <point x="440" y="0"/>
    </contour>
  </outline>
</glyph>
<glyph name="yod" format="2">
  <advance width="187"/>
  <unicode hex="05D9"/>
  <outline>
    <contour>
      <point x="149" y="218" type="line"/>
      <point x="39" y="218" type="line"/>
      <point x="39" y="518" type="line"/>
      <point x="149" y="518" type="line"/>
    </contour>
  </outline>
</glyph>
<glyph name="uni05DA" format="2">
  <advance width="462"/>
  <unicode hex="05DA"/>
  <outline>
    <contour>
      <point x="410" y="-130" type="line"/>
      <point x="300" y="-130" type="line"/>
      <point x="300" y="293" type="line" smooth="yes"/>
      <point x="300" y="356"/>
      <point x="248" y="408"/>
      <point x="185" y="408" type="curve" smooth="yes"/>
      <point x="18" y="408" type="line"/>
      <point x="18" y="518" type="line"/>
      <point x="185" y="518" type="line" smooth="yes"/>
      <point x="309" y="518"/>
      <point x="410" y="417"/>
      <point x="410" y="293" type="curve" smooth="yes"/>
    </contour>
  </outline>
</glyph>
<glyph name="kaf" format="2">
  <advance width="472"/>
  <unicode hex="05DB"/>
  <outline>
    <contour>
      <point x="204" y="0" type="curve" smooth="yes"/>
      <point x="18" y="0" type="line"/>
      <point x="18" y="110" type="line"/>
      <point x="204" y="110" type="line" smooth="yes"/>
      <point x="270" y="110"/>
      <point x="324" y="176"/>
      <point x="324" y="255" type="curve" smooth="yes"/>
      <point x="324" y="326"/>
      <point x="281" y="408"/>
      <point x="204" y="408" type="curve" smooth="yes"/>
      <point x="18" y="408" type="line"/>
      <point x="18" y="518" type="line"/>
      <point x="204" y="518" type="line" smooth="yes"/>
      <point x="342" y="518"/>
      <point x="434" y="389"/>
      <point x="434" y="259" type="curve" smooth="yes"/>
      <point x="434" y="128"/>
      <point x="343" y="0"/>
    </contour>
  </outline>
</glyph>
<glyph name="lamed" format="2">
  <advance width="476"/>
  <unicode hex="05DC"/>
  <outline>
    <contour>
      <point x="142" y="0" type="line"/>
      <point x="260" y="0" type="line"/>
      <point x="459" y="518" type="line"/>
      <point x="128" y="518" type="line"/>
      <point x="128" y="644" type="line"/>
      <point x="18" y="644" type="line"/>
      <point x="18" y="408" type="line"/>
      <point x="299" y="408" type="line"/>
    </contour>
  </outline>
</glyph>
<glyph name="uni05DD" format="2">
  <advance width="542"/>
  <unicode hex="05DD"/>
  <outline>
    <contour>
      <point x="490" y="0" type="line"/>
      <point x="59" y="0" type="line"/>
      <point x="59" y="518" type="line"/>
      <point x="293" y="518" type="line" smooth="yes"/>
      <point x="401" y="518"/>
      <point x="490" y="430"/>
      <point x="490" y="321" type="curve" smooth="yes"/>
    </contour>
    <contour>
      <point x="170" y="110" type="line"/>
      <point x="380" y="110" type="line"/>
      <point x="380" y="321" type="line" smooth="yes"/>
      <point x="380" y="369"/>
      <point x="341" y="408"/>
      <point x="293" y="408" type="curve" smooth="yes"/>
      <point x="170" y="408" type="line"/>
    </contour>
  </outline>
</glyph>
<glyph name="mem" format="2">
  <advance width="610"/>
  <unicode hex="05DE"/>
  <outline>
    <contour>
      <point x="317" y="518" type="curve" smooth="yes"/>
      <point x="262" y="518"/>
      <point x="212" y="501"/>
      <point x="170" y="470" type="curve"/>
      <point x="170" y="518" type="line"/>
      <point x="59" y="518" type="line"/>
      <point x="59" y="0" type="line"/>
      <point x="170" y="0" type="line"/>
      <point x="170" y="240" type="line" smooth="yes"/>
      <point x="170" y="310"/>
      <point x="215" y="408"/>
      <point x="323" y="408" type="curve" smooth="yes"/>
      <point x="439" y="408"/>
      <point x="448" y="294"/>
      <point x="448" y="261" type="curve" smooth="yes"/>
      <point x="448" y="186"/>
      <point x="402" y="110"/>
      <point x="324" y="110" type="curve" smooth="yes"/>
      <point x="291" y="110" type="line"/>
      <point x="291" y="0" type="line"/>
      <point x="324" y="0" type="line" smooth="yes"/>
      <point x="467" y="0"/>
      <point x="558" y="128"/>
      <point x="558" y="266" type="curve" smooth="yes"/>
      <point x="558" y="407"/>
      <point x="463" y="518"/>
    </contour>
  </outline>
</glyph>
<glyph name="uni05DF" format="2">
  <advance width="229"/>
  <unicode hex="05DF"/>
  <outline>
    <contour>
      <point x="170" y="-130" type="line"/>
      <point x="59" y="-130" type="line"/>
      <point x="59" y="518" type="line"/>
      <point x="170" y="518" type="line"/>
    </contour>
  </outline>
</glyph>
<glyph name="nun" format="2">
  <advance width="299"/>
  <unicode hex="05E0"/>
  <outline>
    <contour>
      <point x="90" y="0" type="curve" smooth="yes"/>
      <point x="18" y="0" type="line"/>
      <point x="18" y="110" type="line"/>
      <point x="90" y="110" type="line" smooth="yes"/>
      <point x="123" y="110"/>
      <point x="150" y="137"/>
      <point x="150" y="169" type="curve" smooth="yes"/>
      <point x="150" y="408" type="line"/>
      <point x="75" y="408" type="line"/>
      <point x="75" y="518" type="line"/>
      <point x="260" y="518" type="line"/>
      <point x="260" y="169" type="line" smooth="yes"/>
      <point x="260" y="76"/>
      <point x="184" y="0"/>
    </contour>
  </outline>
</glyph>
<glyph name="samekh" format="2">
  <advance width="561"/>
  <unicode hex="05E1"/>
  <outline>
    <contour>
      <point x="289" y="0" type="curve" smooth="yes"/>
      <point x="147" y="0"/>
      <point x="53" y="124"/>
      <point x="53" y="259" type="curve" smooth="yes"/>
      <point x="53" y="518" type="line"/>
      <point x="288" y="518" type="line" smooth="yes"/>
      <point x="432" y="518"/>
      <point x="523" y="405"/>
      <point x="523" y="266" type="curve" smooth="yes"/>
      <point x="523" y="127"/>
      <point x="431" y="0"/>
    </contour>
    <contour>
      <point x="163" y="408" type="line"/>
      <point x="163" y="259" type="line" smooth="yes"/>
      <point x="163" y="186"/>
      <point x="210" y="110"/>
      <point x="288" y="110" type="curve" smooth="yes"/>
      <point x="366" y="110"/>
      <point x="413" y="186"/>
      <point x="413" y="265" type="curve" smooth="yes"/>
      <point x="413" y="331"/>
      <point x="380" y="408"/>
      <point x="288" y="408" type="curve" smooth="yes"/>
    </contour>
  </outline>
</glyph>
<glyph name="ayin" format="2">
  <advance width="501"/>
  <unicode hex="05E2"/>
  <outline>
    <contour>
      <point x="360" y="518" type="line"/>
      <point x="360" y="370" type="line" smooth="yes"/>
      <point x="360" y="244"/>
      <point x="319" y="155"/>
      <point x="233" y="99" type="curve"/>
      <point x="151" y="518" type="line"/>
      <point x="39" y="518" type="line"/>
      <point x="129" y="53" type="line"/>
      <point x="96" y="44"/>
      <point x="59" y="37"/>
      <point x="18" y="32" type="curve"/>
      <point x="30" y="-77" type="line"/>
      <point x="289" y="-49"/>
      <point x="470" y="85"/>
      <point x="470" y="370" type="curve" smooth="yes"/>
      <point x="470" y="518" type="line"/>
    </contour>
  </outline>
</glyph>
<glyph name="uni05E3" format="2">
  <advance width="508"/>
  <unicode hex="05E3"/>
  <outline>
    <contour>
      <point x="456" y="-130" type="line"/>
      <point x="346" y="-130" type="line"/>
      <point x="346" y="276" type="line" smooth="yes"/>
      <point x="346" y="349"/>
      <point x="287" y="408"/>
      <point x="214" y="408" type="curve" smooth="yes"/>
      <point x="149" y="408" type="line"/>
      <point x="149" y="202" type="line"/>
      <point x="39" y="202" type="line"/>
      <point x="39" y="518" type="line"/>
      <point x="214" y="518" type="line" smooth="yes"/>
      <point x="348" y="518"/>
      <point x="456" y="409"/>
      <point x="456" y="276" type="curve" smooth="yes"/>
    </contour>
  </outline>
</glyph>
<glyph name="pe" format="2">
  <advance width="539"/>
  <unicode hex="05E4"/>
  <outline>
    <contour>
      <point x="267" y="518" type="curve" smooth="yes"/>
      <point x="125" y="518"/>
      <point x="31" y="401"/>
      <point x="31" y="265" type="curve" smooth="yes"/>
      <point x="31" y="249"/>
      <point x="33" y="235"/>
      <point x="35" y="221" type="curve"/>
      <point x="146" y="221" type="line"/>
      <point x="144" y="237"/>
      <point x="142" y="253"/>
      <point x="142" y="267" type="curve" smooth="yes"/>
      <point x="142" y="333"/>
      <point x="181" y="408"/>
      <point x="267" y="408" type="curve" smooth="yes"/>
      <point x="353" y="408"/>
      <point x="391" y="333"/>
      <point x="391" y="263" type="curve" smooth="yes"/>
      <point x="391" y="186"/>
      <point x="345" y="110"/>
      <point x="267" y="110" type="curve" smooth="yes"/>
      <point x="92" y="110" type="line"/>
      <point x="92" y="0" type="line"/>
      <point x="267" y="0" type="line" smooth="yes"/>
      <point x="409" y="0"/>
      <point x="501" y="127"/>
      <point x="501" y="264" type="curve" smooth="yes"/>
      <point x="501" y="398"/>
      <point x="411" y="518"/>
    </contour>
  </outline>
</glyph>
<glyph name="uni05E5" format="2">
  <advance width="561"/>
  <unicode hex="05E5"/>
  <outline>
    <contour>
      <point x="533" y="518" type="line"/>
      <point x="405" y="518" type="line"/>
      <point x="278" y="302" type="line"/>
      <point x="155" y="518" type="line"/>
      <point x="28" y="518" type="line"/>
      <point x="398" y="-130" type="line"/>
      <point x="524" y="-130" type="line"/>
      <point x="340" y="192" type="line"/>
    </contour>
  </outline>
</glyph>
<glyph name="tsadi" format="2">
  <advance width="553"/>
  <unicode hex="05E6"/>
  <outline>
    <contour>
      <point x="43" y="0" type="line"/>
      <point x="513" y="0" type="line"/>
      <point x="513" y="101" type="line"/>
      <point x="507" y="104" type="line" smooth="yes"/>
      <point x="464" y="126"/>
      <point x="417" y="159"/>
      <point x="371" y="198" type="curve"/>
      <point x="456" y="277"/>
      <point x="509" y="405"/>
      <point x="522" y="518" type="curve"/>
      <point x="411" y="518" type="line"/>
      <point x="398" y="433"/>
      <point x="357" y="333"/>
      <point x="292" y="275" type="curve"/>
      <point x="227" y="344"/>
      <point x="165" y="429"/>
      <point x="133" y="518" type="curve"/>
      <point x="18" y="518" type="line"/>
      <point x="61" y="364"/>
      <point x="185" y="211"/>
      <point x="304" y="110" type="curve"/>
      <point x="43" y="110" type="line"/>
    </contour>
  </outline>
</glyph>
<glyph name="qof" format="2">
  <advance width="531"/>
  <unicode hex="05E7"/>
  <outline>
    <contour>
      <point x="31" y="-130" type="line"/>
      <point x="142" y="-130" type="line"/>
      <point x="142" y="327" type="line"/>
      <point x="31" y="327" type="line"/>
    </contour>
    <contour>
      <point x="31" y="518" type="line"/>
      <point x="31" y="408" type="line"/>
      <point x="369" y="408" type="line"/>
      <point x="369" y="262" type="line" smooth="yes"/>
      <point x="369" y="167"/>
      <point x="309" y="110"/>
      <point x="208" y="110" type="curve"/>
      <point x="208" y="0" type="line"/>
      <point x="365" y="0"/>
      <point x="479" y="101"/>
      <point x="479" y="262" type="curve" smooth="yes"/>
      <point x="479" y="518" type="line"/>
    </contour>
  </outline>
</glyph>
<glyph name="resh" format="2">
  <advance width="477"/>
  <unicode hex="05E8"/>
  <outline>
    <contour>
      <point x="425" y="0" type="line"/>
      <point x="315" y="0" type="line"/>
      <point x="315" y="276" type="line" smooth="yes"/>
      <point x="315" y="349"/>
      <point x="255" y="408"/>
      <point x="182" y="408" type="curve" smooth="yes"/>
      <point x="18" y="408" type="line"/>
      <point x="18" y="518" type="line"/>
      <point x="182" y="518" type="line" smooth="yes"/>
      <point x="316" y="518"/>
      <point x="425" y="410"/>
      <point x="425" y="276" type="curve" smooth="yes"/>
    </contour>
  </outline>
</glyph>
<glyph name="shin" format="2">
  <advance width="668"/>
  <unicode hex="05E9"/>
  <outline>
    <contour>
      <point x="506" y="518" type="line"/>
      <point x="506" y="281" type="line" smooth="yes"/>
      <point x="506" y="197"/>
      <point x="452" y="110"/>
      <point x="362" y="110" type="curve" smooth="yes"/>
      <point x="200" y="110" type="line"/>
      <point x="194" y="154" type="line"/>
      <point x="306" y="162"/>
      <point x="399" y="216"/>
      <point x="399" y="342" type="curve" smooth="yes"/>
      <point x="399" y="518" type="line"/>
      <point x="289" y="518" type="line"/>
      <point x="289" y="342" type="line" smooth="yes"/>
      <point x="289" y="316"/>
      <point x="289" y="269"/>
      <point x="179" y="263" type="curve"/>
      <point x="143" y="518" type="line"/>
      <point x="31" y="518" type="line"/>
      <point x="104" y="0" type="line"/>
      <point x="362" y="0" type="line" smooth="yes"/>
      <point x="515" y="0"/>
      <point x="616" y="136"/>
      <point x="616" y="281" type="curve" smooth="yes"/>
      <point x="616" y="518" type="line"/>
    </contour>
  </outline>
  <guideline angle="0" x="0" y="-3980"/>
</glyph>
<glyph name="tav" format="2">
  <advance width="573"/>
  <unicode hex="05EA"/>
  <outline>
    <contour>
      <point x="296" y="518" type="curve" smooth="yes"/>
      <point x="28" y="518" type="line"/>
      <point x="28" y="408" type="line"/>
      <point x="80" y="408" type="line"/>
      <point x="80" y="110" type="line"/>
      <point x="18" y="110" type="line"/>
      <point x="18" y="0" type="line"/>
      <point x="190" y="0" type="line"/>
      <point x="190" y="408" type="line"/>
      <point x="296" y="408" type="line" smooth="yes"/>
      <point x="359" y="408"/>
      <point x="411" y="357"/>
      <point x="411" y="293" type="curve" smooth="yes"/>
      <point x="411" y="0" type="line"/>
      <point x="521" y="0" type="line"/>
      <point x="521" y="293" type="line" smooth="yes"/>
      <point x="521" y="417"/>
      <point x="420" y="518"/>
    </contour>
  </outline>
</glyph>
<glyph name="endash" format="2">
  <advance width="395"/>
  <unicode hex="2013"/>
  <outline>
    <contour>
      <point x="378" y="327" type="line"/>
      <point x="18" y="327" type="line"/>
      <point x="18" y="437" type="line"/>
      <point x="378" y="437" type="line"/>
    </contour>
  </outline>
</glyph>
<glyph name="emdash" format="2">
  <advance width="485"/>
  <unicode hex="2014"/>
  <outline>
    <contour>
      <point x="468" y="327" type="line"/>
      <point x="18" y="327" type="line"/>
      <point x="18" y="437" type="line"/>
      <point x="468" y="437" type="line"/>
    </contour>
  </outline>
</glyph>
<glyph name="quoteleft" format="2">
  <advance width="205"/>
  <unicode hex="2018"/>
  <outline>
    <contour>
      <point x="63" y="630" type="curve"/>
      <point x="188" y="630" type="line"/>
      <point x="154" y="584"/>
      <point x="128" y="493"/>
      <point x="128" y="437" type="curve"/>
      <point x="18" y="437" type="line"/>
      <point x="18" y="501"/>
      <point x="37" y="572"/>
    </contour>
  </outline>
</glyph>
<glyph name="quoteright" format="2">
  <advance width="205"/>
  <unicode hex="2019"/>
  <outline>
    <contour>
      <point x="143" y="437" type="curve"/>
      <point x="18" y="437" type="line"/>
      <point x="52" y="484"/>
      <point x="78" y="574"/>
      <point x="78" y="630" type="curve"/>
      <point x="188" y="630" type="line"/>
      <point x="188" y="567"/>
      <point x="169" y="495"/>
    </contour>
  </outline>
</glyph>
<glyph name="quotesinglbase" format="2">
  <advance width="212"/>
  <unicode hex="201A"/>
  <outline>
    <contour>
      <point x="146" y="-85" type="line"/>
      <point x="172" y="-27"/>
      <point x="191" y="44"/>
      <point x="191" y="108" type="curve"/>
      <point x="81" y="108" type="line"/>
      <point x="81" y="52"/>
      <point x="55" y="-39"/>
      <point x="21" y="-85" type="curve"/>
    </contour>
  </outline>
</glyph>
<glyph name="quotedblleft" format="2">
  <advance width="364"/>
  <unicode hex="201C"/>
  <outline>
    <contour>
      <point x="128" y="390" type="line"/>
      <point x="128" y="425"/>
      <point x="156" y="551"/>
      <point x="188" y="583" type="curve"/>
      <point x="63" y="583" type="line"/>
      <point x="37" y="525"/>
      <point x="18" y="454"/>
      <point x="18" y="390" type="curve"/>
    </contour>
    <contour>
      <point x="286" y="390" type="line"/>
      <point x="286" y="425"/>
      <point x="315" y="551"/>
      <point x="347" y="583" type="curve"/>
      <point x="221" y="583" type="line"/>
      <point x="195" y="525"/>
      <point x="176" y="454"/>
      <point x="176" y="390" type="curve"/>
    </contour>
  </outline>
</glyph>
<glyph name="quotedblbase" format="2">
  <advance width="364"/>
  <unicode hex="201E"/>
  <outline>
    <contour>
      <point x="237" y="109" type="line"/>
      <point x="237" y="75"/>
      <point x="209" y="-51"/>
      <point x="177" y="-83" type="curve"/>
      <point x="302" y="-83" type="line"/>
      <point x="328" y="-25"/>
      <point x="347" y="46"/>
      <point x="347" y="109" type="curve"/>
    </contour>
    <contour>
      <point x="78" y="109" type="line"/>
      <point x="78" y="75"/>
      <point x="50" y="-51"/>
      <point x="18" y="-83" type="curve"/>
      <point x="144" y="-83" type="line"/>
      <point x="169" y="-25"/>
      <point x="188" y="46"/>
      <point x="188" y="109" type="curve"/>
    </contour>
  </outline>
</glyph>
<glyph name="uni20AA" format="2">
  <advance width="702"/>
  <unicode hex="20AA"/>
  <outline>
    <contour>
      <point x="408" y="0" type="curve" smooth="yes"/>
      <point x="220" y="0" type="line"/>
      <point x="220" y="326" type="line"/>
      <point x="330" y="326" type="line"/>
      <point x="330" y="110" type="line"/>
      <point x="408" y="110" type="line" smooth="yes"/>
      <point x="481" y="110"/>
      <point x="540" y="169"/>
      <point x="540" y="242" type="curve" smooth="yes"/>
      <point x="540" y="518" type="line"/>
      <point x="650" y="518" type="line"/>
      <point x="650" y="242" type="line" smooth="yes"/>
      <point x="650" y="109"/>
      <point x="542" y="0"/>
    </contour>
    <contour>
      <point x="170" y="0" type="line"/>
      <point x="59" y="0" type="line"/>
      <point x="59" y="517" type="line"/>
      <point x="248" y="517" type="line"/>
      <point x="381" y="517"/>
      <point x="490" y="408"/>
      <point x="490" y="275" type="curve" smooth="yes"/>
      <point x="490" y="191" type="line"/>
      <point x="380" y="191" type="line"/>
      <point x="380" y="275" type="line" smooth="yes"/>
      <point x="380" y="348"/>
      <point x="321" y="407"/>
      <point x="248" y="407" type="curve"/>
      <point x="170" y="407" type="line"/>
    </contour>
  </outline>
</glyph>
<glyph name="Euro" format="2">
  <advance width="601"/>
  <unicode hex="20AC"/>
  <outline>
    <contour>
      <point x="453" y="172" type="line"/>
      <point x="423" y="115"/>
      <point x="365" y="105"/>
      <point x="332" y="105" type="curve" smooth="yes"/>
      <point x="246" y="105"/>
      <point x="181" y="172"/>
      <point x="181" y="258" type="curve" smooth="yes"/>
      <point x="181" y="343"/>
      <point x="247" y="413"/>
      <point x="332" y="413" type="curve" smooth="yes"/>
      <point x="364" y="413"/>
      <point x="422" y="404"/>
      <point x="452" y="346" type="curve"/>
      <point x="570" y="346" type="line"/>
      <point x="539" y="456"/>
      <point x="445" y="523"/>
      <point x="333" y="523" type="curve" smooth="yes"/>
      <point x="184" y="523"/>
      <point x="71" y="403"/>
      <point x="71" y="258" type="curve" smooth="yes"/>
      <point x="71" y="110"/>
      <point x="185" y="-5"/>
      <point x="335" y="-5" type="curve" smooth="yes"/>
      <point x="449" y="-5"/>
      <point x="540" y="62"/>
      <point x="570" y="172" type="curve"/>
    </contour>
    <contour>
      <point x="31" y="130" type="line"/>
      <point x="332" y="130" type="line"/>
      <point x="332" y="240" type="line"/>
      <point x="31" y="240" type="line"/>
    </contour>
    <contour>
      <point x="31" y="381" type="line"/>
      <point x="31" y="271" type="line"/>
      <point x="332" y="271" type="line"/>
      <point x="332" y="381" type="line"/>
    </contour>
  </outline>
</glyph>
<glyph name="underscore" format="2">
  <advance width="395"/>
  <outline>
    <contour>
      <point x="378" y="0" type="line"/>
      <point x="18" y="0" type="line"/>
      <point x="18" y="110" type="line"/>
      <point x="378" y="110" type="line"/>
    </contour>
  </outline>
</glyph>
